<svg xmlns="http://www.w3.org/2000/svg" xmlns:xlink="http://www.w3.org/1999/xlink" id="Layer_1" data-name="Layer 1" viewBox="0 0 1196.95 390.74"><defs><style>.cls-1{fill:#f4f4f5;}.cls-2{fill:#231f20;}.cls-3{fill:#010101;}.cls-4{fill:#f26122;}.cls-5{fill:#ea1d25;}.cls-6{fill:#f69e1e;}.cls-7{fill:url(#Blue_Gradient_01);}.cls-8{fill:#219cd8;}.cls-10,.cls-13,.cls-17,.cls-18,.cls-31,.cls-32,.cls-34,.cls-35,.cls-36,.cls-39,.cls-40,.cls-41,.cls-42,.cls-43,.cls-44,.cls-45,.cls-8,.cls-9{fill-rule:evenodd;}.cls-9{fill:#233e81;}.cls-10{fill:#27326e;}.cls-11,.cls-18{fill:#fff;}.cls-12,.cls-13{fill:#243e90;}.cls-14{fill:#003a70;}.cls-15{fill:url(#New_Gradient_Swatch_1);}.cls-16{fill:#7b1520;}.cls-17{fill:#e21f26;}.cls-19{fill:#0a97b9;}.cls-20{fill:#035675;}.cls-21{fill:#1cbbee;}.cls-22{fill:#047390;}.cls-23{fill:#82b841;}.cls-24{fill:#6a953e;}.cls-25{fill:#2b7a3c;}.cls-26{fill:#afcc53;}.cls-27{fill:#e31e30;}.cls-28{fill:#b51f2a;}.cls-29{fill:#791d17;}.cls-30{fill:#ea5361;}.cls-31{fill:#00b1d7;}.cls-33{fill:#4d3694;}.cls-34{fill:#0a5cab;}.cls-35{fill:#ec2227;}.cls-36{fill:#fed504;}.cls-37{fill:#ee4e2e;}.cls-38{fill:#1761a6;}.cls-39{fill:#ef8522;}.cls-40{fill:#1072ba;}.cls-41{fill:#e7312f;}.cls-42{fill:#1961aa;}.cls-43{fill:#1662ac;}.cls-44{fill:#1462ab;}.cls-45{fill:#e92f30;}.cls-46{fill:#868686;}.cls-47{fill:#932580;}.cls-48{fill:#e86224;}.cls-49{fill:#0e7cc1;}</style><linearGradient id="Blue_Gradient_01" x1="230.96" y1="42.32" x2="345.5" y2="42.32" gradientUnits="userSpaceOnUse"><stop offset="0" stop-color="#231f5c"></stop><stop offset="1" stop-color="#034ea2"></stop></linearGradient><linearGradient id="New_Gradient_Swatch_1" x1="886.2" y1="-36.38" x2="961.84" y2="-73.27" gradientTransform="translate(15.41 59.74) rotate(1.21)" gradientUnits="userSpaceOnUse"><stop offset="0" stop-color="#fdb913"></stop><stop offset="0.22" stop-color="#ffcb05"></stop><stop offset="0.39" stop-color="#faa61a"></stop><stop offset="0.53" stop-color="#ffcb05"></stop><stop offset="0.65" stop-color="#faa61a"></stop><stop offset="0.65" stop-color="#fbab17"></stop><stop offset="0.69" stop-color="#fdbd0d"></stop><stop offset="0.72" stop-color="#ffc807"></stop><stop offset="0.76" stop-color="#ffcb05"></stop><stop offset="0.8" stop-color="#ffcb05"></stop><stop offset="1" stop-color="#ffcb05"></stop></linearGradient></defs><title>Artboard 1 copy 2</title><rect class="cls-1" width="171.19" height="86.72"></rect><rect class="cls-1" x="204.98" width="171.19" height="86.72"></rect><rect class="cls-1" x="409.95" width="171.19" height="86.72"></rect><rect class="cls-1" x="614.93" width="171.19" height="86.72"></rect><rect class="cls-1" x="819.9" width="171.19" height="86.72"></rect><rect class="cls-1" x="1024.88" width="171.19" height="86.72"></rect><rect class="cls-1" y="153.17" width="171.19" height="86.72"></rect><rect class="cls-1" x="204.98" y="153.17" width="171.19" height="86.72"></rect><rect class="cls-1" x="409.95" y="153.17" width="171.19" height="86.72"></rect><rect class="cls-1" x="614.93" y="153.17" width="171.19" height="86.72"></rect><rect class="cls-1" x="819.9" y="153.17" width="171.19" height="86.72"></rect><rect class="cls-1" x="1024.88" y="153.17" width="171.19" height="86.72"></rect><rect class="cls-1" y="302.96" width="171.19" height="86.72"></rect><rect class="cls-1" x="204.98" y="302.96" width="171.19" height="86.72"></rect><rect class="cls-1" x="409.95" y="302.96" width="171.19" height="86.72"></rect><rect class="cls-1" x="614.93" y="302.96" width="171.19" height="86.72"></rect><rect class="cls-1" x="819.9" y="302.96" width="171.19" height="86.72"></rect><rect class="cls-2" x="1024.88" y="302.96" width="171.19" height="86.72"></rect><path class="cls-3" d="M59.08,72.31v-4a2.35,2.35,0,0,0-2.54-2.54,2.63,2.63,0,0,0-2.27,1.14,2.34,2.34,0,0,0-2.14-1.14,2.15,2.15,0,0,0-1.87.94v-.8h-1.4v6.41h1.4V68.77c0-1.14.6-1.67,1.54-1.67s1.4.6,1.4,1.67v3.54h1.4V68.77a1.48,1.48,0,0,1,1.54-1.67c.94,0,1.4.6,1.4,1.67v3.54ZM79.86,65.9H77.59V64h-1.4V65.9H74.92v1.27h1.27v2.94c0,1.47.6,2.33,2.2,2.33A3.85,3.85,0,0,0,80.13,72l-.4-1.21a2.18,2.18,0,0,1-1.2.34c-.67,0-.94-.4-.94-1.07V67.17h2.27V65.9Zm11.9-.14a1.86,1.86,0,0,0-1.67.94v-.8H88.68v6.41h1.41V68.7c0-1.07.46-1.67,1.33-1.67a3.76,3.76,0,0,1,.87.14l.4-1.34a4.21,4.21,0,0,0-.93-.07Zm-18,.67a4.56,4.56,0,0,0-2.6-.67c-1.61,0-2.68.8-2.68,2.07,0,1.07.8,1.67,2.21,1.88l.67.06c.73.14,1.13.34,1.13.67s-.53.8-1.47.8a3.67,3.67,0,0,1-2.14-.67l-.66,1.07a4.65,4.65,0,0,0,2.73.8c1.88,0,2.94-.86,2.94-2.07s-.86-1.73-2.2-1.93L71,68.37c-.6-.07-1.07-.2-1.07-.6s.47-.74,1.21-.74a4.8,4.8,0,0,1,2,.54l.6-1.14Zm37.29-.67a1.86,1.86,0,0,0-1.67.94v-.8H108v6.41h1.41V68.7c0-1.07.46-1.67,1.33-1.67a3.76,3.76,0,0,1,.87.14l.4-1.34a4.21,4.21,0,0,0-.93-.07ZM93.16,69.1a3.21,3.21,0,0,0,3.41,3.34,3.35,3.35,0,0,0,2.27-.73l-.67-1.14a2.71,2.71,0,0,1-1.67.61,1.9,1.9,0,0,1-1.94-2.08A2,2,0,0,1,96.5,67a2.7,2.7,0,0,1,1.67.6l.67-1.13a3.31,3.31,0,0,0-2.27-.74,3.22,3.22,0,0,0-3.41,3.34Zm13,0V65.9h-1.4v.8a2.43,2.43,0,0,0-2-.94,3.34,3.34,0,0,0,0,6.68,2.25,2.25,0,0,0,2-.93v.8h1.4Zm-5.14,0a1.94,1.94,0,1,1,3.87,0,1.94,1.94,0,1,1-3.87,0ZM84.21,65.76a3.34,3.34,0,0,0,.06,6.68,4.1,4.1,0,0,0,2.61-.86l-.67-1a3.18,3.18,0,0,1-1.87.67,1.8,1.8,0,0,1-1.94-1.53h4.75v-.54c.06-2.07-1.14-3.41-2.94-3.41Zm0,1.21a1.56,1.56,0,0,1,1.6,1.53H82.47A1.68,1.68,0,0,1,84.21,67ZM119,69.1V63.36h-1.41V66.7a2.4,2.4,0,0,0-2-.94,3.34,3.34,0,0,0,0,6.68,2.23,2.23,0,0,0,2-.93v.8H119Zm-5.15,0a1.94,1.94,0,1,1,3.88,0,1.94,1.94,0,1,1-3.88,0ZM67,69.1V65.9H65.56v.8a2.41,2.41,0,0,0-2-.94,3.34,3.34,0,0,0,0,6.68,2.25,2.25,0,0,0,2-.93v.8H67Zm-5.22,0a1.94,1.94,0,1,1,3.88,0,1.94,1.94,0,1,1-3.88,0Z"></path><rect class="cls-4" x="73.31" y="17.19" width="21.05" height="37.82"></rect><path class="cls-5" d="M74.65,36.09a24.12,24.12,0,0,1,9.15-18.9A24.06,24.06,0,1,0,83.8,55,24,24,0,0,1,74.65,36.09Z"></path><path class="cls-6" d="M122.76,36.09A24,24,0,0,1,83.87,55a24.09,24.09,0,0,0,0-37.81,24,24,0,0,1,38.89,18.9Z"></path><path class="cls-7" d="M274.45,24.48l-15,35.78h-9.78l-7.38-28.55c-.45-1.76-.84-2.41-2.2-3.14A38.59,38.59,0,0,0,231,25.52l.22-1h15.75a4.31,4.31,0,0,1,4.26,3.65l3.9,20.7,9.63-24.35Zm38.33,24.1c0-9.44-13.06-10-13-14.18,0-1.29,1.25-2.65,3.93-3a17.45,17.45,0,0,1,9.12,1.6l1.63-7.58a24.83,24.83,0,0,0-8.66-1.59c-9.15,0-15.59,4.86-15.64,11.82-.06,5.16,4.6,8,8.11,9.74s4.81,2.88,4.8,4.45c0,2.4-2.88,3.46-5.54,3.5a19.41,19.41,0,0,1-9.51-2.26l-1.68,7.84a28.07,28.07,0,0,0,10.3,1.9c9.72,0,16.08-4.8,16.11-12.24m24.16,11.68h8.56L338,24.48h-7.9a4.21,4.21,0,0,0-3.94,2.63L312.3,60.26H322L324,54.92h11.87ZM326.61,47.58l4.87-13.43,2.81,13.43Zm-38.94-23.1L280,60.26h-9.26l7.66-35.78Z"></path><path class="cls-8" d="M652,32.11h8.37c4.49,0,6.18,2.28,5.92,5.62-.43,5.51-3.77,8.56-8.19,8.56h-2.23c-.61,0-1,.4-1.18,1.49l-.95,6.33c-.06.41-.28.65-.6.68h-5.26c-.49,0-.67-.38-.54-1.2l3.21-20.28A1.27,1.27,0,0,1,652,32.11Z"></path><path class="cls-9" d="M688.27,31.74c2.82,0,5.42,1.53,5.07,5.34-.43,4.54-2.86,7.05-6.7,7.06H683.3c-.49,0-.72.39-.84,1.19l-.65,4.12c-.1.62-.42.93-.89.93H677.8c-.49,0-.66-.32-.55-1l2.57-16.5c.12-.81.43-1.11,1-1.11h7.47Zm-5.08,8.83h2.54c1.59-.06,2.64-1.16,2.75-3.14a1.92,1.92,0,0,0-2.08-2.09H684l-.82,5.22Zm18.62,8.55c.28-.26.57-.4.53-.08l-.1.77c0,.4.11.61.48.61h2.77c.46,0,.69-.19.8-.91L708,38.81c.09-.54,0-.81-.45-.81h-3c-.27,0-.41.16-.48.58l-.11.65c-.06.35-.22.41-.36.06-.52-1.22-1.84-1.77-3.67-1.72-4.27.08-7.15,3.33-7.46,7.48a5.15,5.15,0,0,0,5.1,5.74,5.47,5.47,0,0,0,4.3-1.67h0Zm-2.32-1.65a2.78,2.78,0,0,1-2.85-3.26,4,4,0,0,1,3.82-3.27,2.78,2.78,0,0,1,2.85,3.27,4,4,0,0,1-3.82,3.26ZM713.42,38h-2.81c-.58,0-.81.43-.63,1l3.48,10.21L710.05,54c-.29.41-.07.78.34.78h3.15a1,1,0,0,0,.94-.46L725.2,38.93c.33-.47.17-1-.37-1h-3c-.51,0-.71.2-1,.62l-4.47,6.48-2-6.49a.85.85,0,0,0-.94-.61Z"></path><path class="cls-8" d="M736.35,31.74c2.82,0,5.42,1.53,5.07,5.34-.44,4.54-2.87,7.05-6.7,7.06h-3.35c-.48,0-.71.39-.84,1.19l-.64,4.12c-.1.62-.42.93-.89.93h-3.12c-.49,0-.67-.32-.56-1l2.58-16.5c.13-.82.43-1.12,1-1.12h7.46Zm-5.08,8.83h2.54c1.59-.06,2.64-1.16,2.74-3.14a1.91,1.91,0,0,0-2.07-2.09h-2.39l-.82,5.22Zm18.62,8.55c.28-.26.57-.4.53-.08l-.1.77c-.05.4.1.61.47.61h2.77c.47,0,.7-.19.81-.91l1.71-10.7c.08-.54-.05-.81-.46-.81h-3c-.27,0-.41.16-.48.58l-.11.65c-.06.35-.21.41-.36.06-.52-1.22-1.83-1.77-3.67-1.72-4.27.08-7.15,3.33-7.46,7.48a5.15,5.15,0,0,0,5.1,5.74,5.47,5.47,0,0,0,4.3-1.67h0Zm-2.32-1.65a2.78,2.78,0,0,1-2.85-3.26,4,4,0,0,1,3.82-3.27,2.78,2.78,0,0,1,2.85,3.27,4,4,0,0,1-3.82,3.26Zm12.77,3h-3.2a.38.38,0,0,1-.39-.36V50l2.81-17.78a.54.54,0,0,1,.53-.43h3.19a.38.38,0,0,1,.4.36.17.17,0,0,1,0,.07L760.87,50a.55.55,0,0,1-.53.44Z"></path><path class="cls-9" d="M646.72,25.13h8.37c2.36,0,5.16.08,7,1.73a5.68,5.68,0,0,1,1.76,4.75c-.52,6.39-4.34,10-9.47,10h-4.13c-.71,0-1.17.47-1.37,1.73l-1.15,7.34c-.08.48-.28.76-.65.79h-5.17c-.57,0-.77-.43-.62-1.38L645,26.53A1.49,1.49,0,0,1,646.72,25.13Z"></path><path class="cls-10" d="M649,42.57l1.46-9.26a1.29,1.29,0,0,1,1.46-1.2h8.37a8.34,8.34,0,0,1,3.38.61c-.84,5.7-4.52,8.86-9.34,8.86h-4.12C649.68,41.58,649.28,41.86,649,42.57Z"></path><path class="cls-11" d="M1091.42,335.5v21.3h-4.35V344.55c0-.28,0-.59,0-.92s0-.67.08-1l-5.66,10.95a1.86,1.86,0,0,1-.71.78,2,2,0,0,1-1,.26h-.67a2,2,0,0,1-1-.26,1.92,1.92,0,0,1-.71-.78l-5.66-11c0,.35.06.7.08,1s0,.65,0,.93V356.8h-4.36V335.5h3.77l.56,0a1.43,1.43,0,0,1,.44.09,1,1,0,0,1,.34.22,2.28,2.28,0,0,1,.3.43l5.48,10.81c.2.37.38.75.56,1.15s.36.81.52,1.23c.17-.43.34-.85.52-1.26a12.74,12.74,0,0,1,.58-1.17l5.47-10.76a1.63,1.63,0,0,1,.3-.43,1,1,0,0,1,.34-.22,1.36,1.36,0,0,1,.43-.09l.56,0Z"></path><path class="cls-11" d="M1117,346.15a11.44,11.44,0,0,1-.79,4.29,10.4,10.4,0,0,1-2.25,3.46,10.21,10.21,0,0,1-3.48,2.3,12.63,12.63,0,0,1-9.06,0,10.14,10.14,0,0,1-5.75-5.76,11.93,11.93,0,0,1,0-8.59,10.11,10.11,0,0,1,2.25-3.45,10.45,10.45,0,0,1,3.5-2.3,12,12,0,0,1,4.53-.83,11.79,11.79,0,0,1,4.53.84,10.21,10.21,0,0,1,5.73,5.75A11.48,11.48,0,0,1,1117,346.15Zm-5,0a9.34,9.34,0,0,0-.41-2.85,6.23,6.23,0,0,0-1.18-2.14,5.09,5.09,0,0,0-1.88-1.34,6.31,6.31,0,0,0-2.53-.47,6.44,6.44,0,0,0-2.55.47,5.09,5.09,0,0,0-1.88,1.34,5.92,5.92,0,0,0-1.18,2.14,10.11,10.11,0,0,0,0,5.7,5.76,5.76,0,0,0,1.18,2.14,5,5,0,0,0,1.88,1.34,6.62,6.62,0,0,0,2.55.46,6.49,6.49,0,0,0,2.53-.46,5,5,0,0,0,1.88-1.34,6.05,6.05,0,0,0,1.18-2.14A9.29,9.29,0,0,0,1112,346.15Z"></path><path class="cls-11" d="M1138,356.8h-4.47a1.91,1.91,0,0,1-1.79-.93l-3.53-6.19a1.79,1.79,0,0,0-.56-.57,1.64,1.64,0,0,0-.88-.19h-1.25v7.88h-4.94V335.5h6.92a14.05,14.05,0,0,1,3.94.48,7.44,7.44,0,0,1,2.66,1.32,5.06,5.06,0,0,1,1.5,2,7,7,0,0,1,.19,4.48,5.94,5.94,0,0,1-.82,1.7,6.28,6.28,0,0,1-1.33,1.4,7.22,7.22,0,0,1-1.84,1,4.94,4.94,0,0,1,.91.63,4.38,4.38,0,0,1,.76.88Zm-10.5-11.28a5.06,5.06,0,0,0,1.72-.26,3.12,3.12,0,0,0,1.16-.71,2.5,2.5,0,0,0,.66-1.06,4,4,0,0,0,.21-1.31,2.75,2.75,0,0,0-.92-2.19,4.29,4.29,0,0,0-2.83-.79h-2v6.32Z"></path><path class="cls-11" d="M1145.3,339.3v5h6.7v3.66h-6.7V353H1154v3.8h-13.71V335.5H1154v3.8Z"></path><path class="cls-12" d="M457.07,23.36a39.67,39.67,0,0,1,16,3.7l.26.11.1.26v0h0c.44,1.36.83,2.72,1.15,4.07s.57,2.72.76,4.07a43.71,43.71,0,0,1,.45,5.34V43a47.31,47.31,0,0,1-2.36,13.49l-.1.26-.26.11a38.21,38.21,0,0,1-15.63,3.44h-.4V59.05h.4a37,37,0,0,0,14.87-3.22,44.13,44.13,0,0,0,1.79-20.07c-.19-1.3-.45-2.64-.77-4s-.63-2.47-1-3.7a38.4,38.4,0,0,0-15.27-3.47Zm-15.26,3.72A32.85,32.85,0,0,1,457,23.36h.12v1.27H457a31.62,31.62,0,0,0-14.36,3.47,35.91,35.91,0,0,0-3,13.62,33.37,33.37,0,0,0,3,14.09,37.28,37.28,0,0,0,14.5,3.24v1.26a38.42,38.42,0,0,1-15.23-3.44l-.33-.31a35,35,0,0,1-3.18-14.26v-.59a37.64,37.64,0,0,1,3.18-14.31Z"></path><path class="cls-13" d="M457.4,52.15c-.26-3.55-.09-7.25-1.15-10.63-1-3.16-4.72-5-4.8-8.44a5.72,5.72,0,0,1,5.86-5.85,6,6,0,0,1,6.13,5.56c.32,3.4-3.81,5.68-4.89,8.92S457.75,48.68,457.4,52.15Z"></path><path class="cls-13" d="M458.83,51.3a24.25,24.25,0,0,1,.71-8.66c.94-3,2.91-5.49,5.93-6.3,2.06-.56,5.09,1.85,4.6,4.33a6.14,6.14,0,0,1-5.59,4.59c-1.49.13-2.12,1.32-3.05,2a14.55,14.55,0,0,0,8.74-3.75c.28,1.45.46,3.88-.67,4.72-2.23,1.58-4.29.3-6.92,1C461.12,49.7,460.21,50.63,458.83,51.3Z"></path><path class="cls-13" d="M456,51.3a24.49,24.49,0,0,0-.69-8.66c-.95-3-2.92-5.49-5.93-6.3-2.06-.56-5.11,1.85-4.61,4.33a6.16,6.16,0,0,0,5.6,4.59c1.46.13,2.11,1.32,3,2a14.49,14.49,0,0,1-8.73-3.75c-.28,1.45-.47,3.88.67,4.72,2.23,1.58,4.29.3,6.91,1C453.72,49.7,454.61,50.63,456,51.3Z"></path><path class="cls-13" d="M465.89,55.89v-.51l.37-.09-.37-.56V53.8l1.68,2.33-.6.15-.41-.58Zm0-2.09v.93l-.26-.37-.11,1.12.37-.1v.51l-.42.09-.08.69-.59.15.39-3,.59-.15.11.16Zm-5.54,3.7V57h.13a2,2,0,0,0,.39-.06.29.29,0,0,0,.19-.13.33.33,0,0,0,.08-.24.41.41,0,0,0-.1-.22.31.31,0,0,0-.18-.11,2,2,0,0,0-.51,0v-.49h.28a.52.52,0,0,0,.23-.13.36.36,0,0,0,0-.43.24.24,0,0,0-.22-.09h-.25v-.48a1.63,1.63,0,0,1,.45,0,.73.73,0,0,1,.32.09.77.77,0,0,1,.24.21,1,1,0,0,1,.11.33.67.67,0,0,1-.07.37.63.63,0,0,1-.28.28.69.69,0,0,1,.42.23.61.61,0,0,1,.19.41,1.32,1.32,0,0,1-.06.39.87.87,0,0,1-.22.31,1.05,1.05,0,0,1-.37.17c-.09,0-.34,0-.69.07Zm3.52-1.56.57.08a1.37,1.37,0,0,1-.29.76,1.29,1.29,0,0,1-.71.35,1.3,1.3,0,0,1-1-.22,1.77,1.77,0,0,1-.37-2.14,1.29,1.29,0,0,1,.88-.56,1.22,1.22,0,0,1,.89.17.91.91,0,0,1,.37.47l-.54.22a.59.59,0,0,0-.26-.3.64.64,0,0,0-.41-.07.68.68,0,0,0-.46.31,1.14,1.14,0,0,0-.08.76,1.34,1.34,0,0,0,.34.73.62.62,0,0,0,.54.15.64.64,0,0,0,.35-.22A1,1,0,0,0,463.87,55.94Zm-3.52-1.3v.48l-.24,0-.33,0,.05.65.39,0a.27.27,0,0,0,.13,0v.49h0l-.45,0,.06.76.4,0v.48l-.92.1-.26-2.85,1.13-.09a.06.06,0,0,1,.05,0Zm-3.58,1.88V56a.79.79,0,0,0,.26,0,.46.46,0,0,0,.18-.13.49.49,0,0,0,.06-.23.33.33,0,0,0-.07-.26.38.38,0,0,0-.23-.13h-.2v-.49a1.57,1.57,0,0,1,.54.06.74.74,0,0,1,.41.28.77.77,0,0,1,.14.55,1.06,1.06,0,0,1-.09.45,1.11,1.11,0,0,1-.24.28,1.79,1.79,0,0,1-.32.13A2.76,2.76,0,0,1,456.77,56.52Zm0-1.77v.49h-.23l-.27,0V56h.5v.49h-.52l0,1.08-.58,0,.06-2.85.91,0Zm-5.37,1.49v-.87a1.72,1.72,0,0,0,.33,0,.34.34,0,0,0,.19-.09.75.75,0,0,0,.09-.2.35.35,0,0,0,0-.25.31.31,0,0,0-.2-.14,3,3,0,0,0-.37-.08v-.48l.24,0a2.39,2.39,0,0,1,.63.19.67.67,0,0,1,.28.34.87.87,0,0,1,0,.46.76.76,0,0,1-.28.48.93.93,0,0,1-.6.17,1.11,1.11,0,0,1,.26.28,2.36,2.36,0,0,1,.24.52l.25.61-.67-.13-.3-.68a1.63,1.63,0,0,1-.09-.19ZM453,54.47l.56.06-.13,1.54c0,.24,0,.41,0,.47a.5.5,0,0,0,.15.29A.53.53,0,0,0,454,57a.54.54,0,0,0,.37-.07.44.44,0,0,0,.19-.22,3.37,3.37,0,0,0,.05-.49l.13-1.58.58.06-.13,1.48a2.35,2.35,0,0,1-.11.73.77.77,0,0,1-.56.54,1.44,1.44,0,0,1-.54,0,1.54,1.54,0,0,1-.61-.15,1.44,1.44,0,0,1-.32-.26,1,1,0,0,1-.13-.34c0-.16,0-.41,0-.72Zm-4.51.84.11-.46,1.21.31-.3,1.1a1.34,1.34,0,0,1-.6.17,2.19,2.19,0,0,1-.68-.06,1.55,1.55,0,0,1-.71-.37,1.26,1.26,0,0,1-.35-.65,1.87,1.87,0,0,1,0-.78,1.91,1.91,0,0,1,.39-.73,1.19,1.19,0,0,1,.65-.35,1.25,1.25,0,0,1,.71,0,1.26,1.26,0,0,1,.74.42,1,1,0,0,1,.21.69l-.58,0a.58.58,0,0,0-.13-.39.75.75,0,0,0-.37-.22.79.79,0,0,0-.63.07,1.09,1.09,0,0,0-.41.64,1.19,1.19,0,0,0,0,.8.79.79,0,0,0,.5.39,1.54,1.54,0,0,0,.37,0,2.11,2.11,0,0,0,.36-.09l.09-.35-.63-.17Zm2.88-1.15-1-.17L450,56.8l.55.09.21-1.17.13,0a1.59,1.59,0,0,1,.28.07,2.11,2.11,0,0,1,.15.15c0,.06.07.15.13.28v-.87l-.19,0-.41-.08.11-.7.45.07h0Z"></path><path class="cls-13" d="M540,50.68V45.44h2.3V36.22L540,40.83V29.33h9l2.31,26.5h-9.06V50.68Zm0-21.35v11.5l-2.3,4.61H540v5.24h-4.35l-1.78,4.87h-5.62V49.49L534.49,36h-1.28l3.56-6.65Zm-11.75,8.83L531,31.5l-2.81-1.56ZM505.9,35.61a6.31,6.31,0,0,0,0-2.21v2.21Zm22.32-5.67v8.22l-.37.89c-5.54-4-13.71-.35-14.18,3.83-.46,4.36,2.87,7.9,11.36,5.26l-2.92,7.8c-11.21,1.25-15.55-3.19-16.21-8.38V44.62a16.45,16.45,0,0,1,1-3.9c5.52-13.71,14.48-10.63,17.88-10.89l.5-1.52,2.93,1.63Zm0,19.55-2.8,6.06h2.8Zm-32.39,5.89c6-1.19,11.9-8.4,6-14.14a7.89,7.89,0,0,0,4.08-5.63V33.4c-.4-2.29-2.17-4.15-5.5-4.2l-4.57-.09V34.2h1.9c2,0,1.76,5.24-.76,5.24h-1.14v4c2.73.52,1.77,4.31,0,5.49v6.44ZM505.9,44.62v2.94A13.14,13.14,0,0,1,505.9,44.62Zm-18-15.68-3.7,7.17,1.65-.13-4.46,19.57h12.77a7.71,7.71,0,0,0,1.65-.17V48.94a1.79,1.79,0,0,1-1,.35h-4.59l1.52-5.89h3.44a4.09,4.09,0,0,1,.65.05v-4h-3.19l1.28-5.24h1.91V29.11Z"></path><path class="cls-14" d="M851.28,43.2c0-1.68,0-3.1-.12-4.36h3.19L854.5,41h.09a5,5,0,0,1,4.51-2.5,4.22,4.22,0,0,1,4.06,2.7h.07a5.53,5.53,0,0,1,1.8-1.83,4.91,4.91,0,0,1,3-.87c2.43,0,4.9,1.65,4.9,6.35v8.63h-3.61V45.4c0-2.44-.84-3.88-2.62-3.88a2.81,2.81,0,0,0-2.58,1.95,5.36,5.36,0,0,0-.18,1.23v8.79h-3.61V45c0-2-.82-3.48-2.53-3.48a2.89,2.89,0,0,0-2.65,2.1,3.16,3.16,0,0,0-.21,1.2v8.67h-3.61Z"></path><path class="cls-14" d="M887,50a23.57,23.57,0,0,0,.21,3.52h-3.34l-.24-1.62h-.1a5.43,5.43,0,0,1-4.33,2,4.34,4.34,0,0,1-4.6-4.36c0-3.7,3.28-5.57,8.7-5.54v-.24c0-1-.4-2.55-3-2.55a7.8,7.8,0,0,0-3.94,1.08l-.72-2.41a10.6,10.6,0,0,1,5.3-1.29c4.69,0,6.05,3,6.05,6.16Zm-3.62-3.64c-2.61-.06-5.11.51-5.11,2.74a2,2,0,0,0,2.11,2.11,3,3,0,0,0,2.88-2,2.65,2.65,0,0,0,.12-.81Z"></path><path class="cls-14" d="M889.5,43.2c0-1.68,0-3.1-.12-4.36h3.25l.18,2.2h.09a5.28,5.28,0,0,1,4.67-2.53c2.55,0,5.2,1.65,5.2,6.29v8.69h-3.7V45.22c0-2.11-.78-3.7-2.8-3.7a3.11,3.11,0,0,0-2.89,2.16,3.8,3.8,0,0,0-.15,1.2v8.61H889.5Z"></path><path class="cls-14" d="M918.81,33V49.37c0,1.5.06,3.13.12,4.12h-3.3l-.16-2.31h-.06a5.26,5.26,0,0,1-4.78,2.64c-3.49,0-6.26-3-6.26-7.49,0-4.9,3-7.82,6.56-7.82a4.64,4.64,0,0,1,4.12,1.93h.06V33Zm-3.7,12a5.39,5.39,0,0,0-.09-1,3.24,3.24,0,0,0-3.19-2.61c-2.37,0-3.7,2.1-3.7,4.84s1.33,4.63,3.68,4.63A3.25,3.25,0,0,0,915,48.22a4.11,4.11,0,0,0,.12-1.08Z"></path><path class="cls-14" d="M921.43,53.49V38.84h3.73V53.49Z"></path><path class="cls-14" d="M927.78,43.56c0-2,0-3.4-.12-4.72h3.22l.12,2.79h.12a4,4,0,0,1,4-2.79,4.21,4.21,0,0,1,.87,0v3.25a5.13,5.13,0,0,0-1.08-.12,3.26,3.26,0,0,0-3.31,2.79,6.55,6.55,0,0,0-.12,1.15v7.58h-3.7Z"></path><path class="cls-14" d="M937.71,53.49V38.84h3.73V53.49Z"></path><path class="cls-15" d="M964.66,23.34c-1.85-2.1-3.81-1.15-5.37-.37-.66.32-5.4,3-5.4,3a4.61,4.61,0,0,1-5.41-1.09,2.17,2.17,0,0,1-.2-.29l-.19-.32a14.06,14.06,0,0,0-1-1.56,7.37,7.37,0,0,0-.75-.85c-1.77-1.79-4.61-3.05-9.35-.77-2.25,1.3-9.57,5.48-9.57,5.48a4.54,4.54,0,0,1-5.53-1.25l-.08-.13-.09-.15-.47-.76c-.2-.31-.42-.63-.67-1a8.45,8.45,0,0,0-.75-.85c-1.76-1.79-4.58-3-9.29-.8L901,27.08h0l-4.84,2.76,2.51,3.08a5.1,5.1,0,0,0,6.1,1.26l8.49-4.91c7.23-4,10.8-.18,12.38,2.35l.15.24h0l0,.09.18.29a4,4,0,0,0,3.42,1.89,4.27,4.27,0,0,0,2.13-.72l8.18-4.74h0c7.32-4,11,0,12.5,2.55a5.49,5.49,0,0,0,.4.62,3.78,3.78,0,0,0,3.17,1.69,4.79,4.79,0,0,0,2-.65l9.81-5.66A40.44,40.44,0,0,0,964.66,23.34Z"></path><rect class="cls-16" x="429.99" y="186.67" width="20.51" height="18.93"></rect><polygon class="cls-17" points="432.57 189.98 443.56 189.98 449.05 196.11 443.56 202.81 432.57 202.81 437.49 196.11 432.57 189.98"></polygon><polyline class="cls-18" points="449.05 196.11 443.56 189.98 432.57 189.98 437.49 196.11"></polyline><path class="cls-16" d="M464.39,193.48a3.09,3.09,0,0,0-2.44-1,4.13,4.13,0,0,0-.1,8.22,3.1,3.1,0,0,0,2.66-1.37l2.37,1.74a5.62,5.62,0,0,1-4.66,2.22c-4,0-7-2.61-7-6.7s2.93-6.71,7-6.71a5.55,5.55,0,0,1,4.35,1.88Z"></path><rect class="cls-16" x="468.39" y="190.17" width="2.84" height="12.75"></rect><polygon class="cls-16" points="473.82 190.17 478.12 190.17 481.09 198.49 481.13 198.49 484.11 190.17 488.39 190.17 488.39 202.92 485.55 202.92 485.55 193.14 485.52 193.14 482.13 202.92 479.96 202.92 476.7 193.14 476.66 193.14 476.66 202.92 473.82 202.92 473.82 190.17"></polygon><path class="cls-16" d="M491,190.17h4.81c2.26,0,4.71.47,4.71,3.24a2.87,2.87,0,0,1-2.22,2.81v0a3.07,3.07,0,0,1,2.83,3.12c0,2.66-2.56,3.55-4.85,3.55H491Zm2.84,5.1h2.06c.87,0,1.79-.36,1.79-1.39s-1-1.33-1.92-1.33h-1.93Zm0,5.28h2.55c.89,0,1.9-.38,1.9-1.5s-1.37-1.4-2.3-1.4h-2.15Z"></path><polygon class="cls-16" points="504.76 190.37 506.64 190.37 513.89 200.77 513.92 200.77 513.92 190.37 515.41 190.37 515.41 202.9 513.53 202.9 506.29 192.5 506.25 192.5 506.25 202.9 504.76 202.9 504.76 190.37"></polygon><rect class="cls-16" x="518.52" y="190.37" width="1.49" height="12.52"></rect><path class="cls-16" d="M527.19,190.37h1.4l5.32,12.53h-1.74l-1.27-3.08h-6.26l-1.29,3.08h-1.68Zm.67,1.91h0l-2.6,6.16h5.1Z"></path><path class="cls-16" d="M546.22,202.05a9.7,9.7,0,0,1-4.69,1.16,6.34,6.34,0,0,1-6.68-6.58,6.45,6.45,0,0,1,6.73-6.58A6,6,0,0,1,546,191.7l-1.12,1.17a4.71,4.71,0,0,0-3.42-1.44,5.2,5.2,0,0,0,.15,10.4,7.34,7.34,0,0,0,3.11-.72v-3.84h-2.88v-1.38h4.37Z"></path><path class="cls-16" d="M553.4,190.37h1.4l5.32,12.53h-1.73l-1.28-3.08h-6.26l-1.29,3.08h-1.68Zm.67,1.91h0l-2.59,6.16h5.11Z"></path><path class="cls-3" d="M301.89,202.36a2.87,2.87,0,0,0-1.41-2.72,4.11,4.11,0,0,0-1.07-.33,7.87,7.87,0,0,0-1.43-.12h-1.87v6.47H298a4.43,4.43,0,0,0,3-.78,2.35,2.35,0,0,0,.71-1,4.31,4.31,0,0,0,.24-1.49m-5.78-9.18v5.55h1.95c2.26,0,3.43-1,3.44-2.84s-1.21-2.72-3.61-2.71Zm-1.54,11.6c0-.2,0-.54,0-1v-8.74l0-.84c0-.18,0-.31,0-.37a.78.78,0,0,0-.05-.18.68.68,0,0,0-.43-.46,2.47,2.47,0,0,0-.88-.13v-.29h5a12.81,12.81,0,0,1,2,.15,5.63,5.63,0,0,1,1.42.38,2.57,2.57,0,0,1,1.55,2.52c0,1.69-1.1,2.77-3.41,3.05l-.38.06a8.65,8.65,0,0,1,1.54.27,3.76,3.76,0,0,1,.95.35,3.06,3.06,0,0,1,1.82,3,3.11,3.11,0,0,1-2.43,3.23,8.78,8.78,0,0,1-1.35.24,16.09,16.09,0,0,1-1.77.09H293.2v-.3c.58,0,1-.09,1.15-.3a.78.78,0,0,0,.16-.24,1.86,1.86,0,0,0,.06-.45"></path><path class="cls-3" d="M306.07,203.64a2.32,2.32,0,0,0,.45,1.47,1.44,1.44,0,0,0,1.18.57,2.75,2.75,0,0,0,1.4-.38,2.8,2.8,0,0,0,1-1,3.06,3.06,0,0,0,.33-1,9.43,9.43,0,0,0,.1-1.54v-.95a17.11,17.11,0,0,0-2,.26,4.76,4.76,0,0,0-1.24.43,2.25,2.25,0,0,0-1.28,2.17m4.71,2.05a2.41,2.41,0,0,1-.21-1.05v-.18l-.12.14a5.52,5.52,0,0,1-.41.42,5,5,0,0,1-.48.36,3.75,3.75,0,0,1-1.14.61,3.88,3.88,0,0,1-1.23.18,2.77,2.77,0,0,1-1.84-.56,2.29,2.29,0,0,1-.58-.83,2.74,2.74,0,0,1-.21-1.08c0-1.42.88-2.34,2.67-2.75.47-.11,1-.2,1.49-.27s1.13-.12,1.79-.17l.07-1.24a7.12,7.12,0,0,0-.06-1,2.55,2.55,0,0,0-.2-.69,1.62,1.62,0,0,0-1.59-.76,1.73,1.73,0,0,0-2,1.77,2.21,2.21,0,0,1-.05.4.37.37,0,0,1-.12.17,1.08,1.08,0,0,1-.61.14c-.62,0-.85-.17-.84-.48a1.7,1.7,0,0,1,.33-.93,2.7,2.7,0,0,1,.9-.79,5.5,5.5,0,0,1,2.67-.58,3.06,3.06,0,0,1,2.43.79,2.19,2.19,0,0,1,.39.81,5.14,5.14,0,0,1,.13,1.23v.6l0,1.28,0,1.76,0,.85c0,.4,0,.71.05,1.05s.15.71.41.8a2.67,2.67,0,0,0,1.06.15,2.63,2.63,0,0,0,.86-.13.77.77,0,0,0,.42-.58,6.92,6.92,0,0,0,.07-1.27v-5a2.37,2.37,0,0,0-.26-1.41,1.25,1.25,0,0,0-1-.34v-.26l2.65-.19v2.11l.14-.25a3.87,3.87,0,0,1,1.34-1.49,3.61,3.61,0,0,1,1.86-.44,2.52,2.52,0,0,1,2.37,1.12,2.48,2.48,0,0,1,.36.91,7.27,7.27,0,0,1,.11,1.37v3.84a6.23,6.23,0,0,0,.07,1.28.71.71,0,0,0,.42.57,3.41,3.41,0,0,0,1,.13,2.22,2.22,0,0,0,.79-.13.76.76,0,0,0,.41-.58,8,8,0,0,0,.07-1.27v-9a6.48,6.48,0,0,0-.07-1.15.65.65,0,0,0-.4-.52,3,3,0,0,0-.85-.09v-.27l2.76-.14c0,.61-.06,1.24-.08,1.88s0,1.25,0,1.75v6.07l3-3.33a2.1,2.1,0,0,0,.67-1.2c0-.44-.43-.65-1.17-.68v-.27h4v.27a3.21,3.21,0,0,0-.62.13,3.4,3.4,0,0,0-.58.28,4.48,4.48,0,0,0-.51.34,3.65,3.65,0,0,0-.5.45c-.19.19-.47.48-.83.88l-1,1.08,2.62,4.13a4,4,0,0,0,.83,1,1.9,1.9,0,0,0,.93.36v.27h-2.41c-.06-.13-.15-.3-.27-.52l-.38-.7-.29-.52-1.95-3.17-1.52,1.71v1a8,8,0,0,0,.07,1.27.76.76,0,0,0,.41.58,2.59,2.59,0,0,0,.86.13v.26h-8.12v-.26c.55,0,.93-.1,1.08-.3a.87.87,0,0,0,.14-.27,1.78,1.78,0,0,0,.06-.39c0-.12,0-.3,0-.53s0-.4,0-.49V200.1a4.91,4.91,0,0,0-.31-2,1.71,1.71,0,0,0-1.7-1,2.44,2.44,0,0,0-2.15,1.28,3.71,3.71,0,0,0-.47,1.09,4.67,4.67,0,0,0-.18,1.21v3.21a6.85,6.85,0,0,0,.08,1.28.7.7,0,0,0,.41.57,2.66,2.66,0,0,0,.87.13v.26h-4l-1.37,0c-.35,0-.52,0-.84-.07s-.4-.15-.49-.34"></path><path class="cls-3" d="M228,200h.85a3.15,3.15,0,0,0,2.27-.73,2.83,2.83,0,0,0,.6-1.1,5.24,5.24,0,0,0,.21-1.55q0-3.29-2.88-3.29H228Zm0,.51v3.31a4.54,4.54,0,0,0,.09,1.18.68.68,0,0,0,.44.51,3.62,3.62,0,0,0,1.05.14v.46h-5.2v-.46a3.14,3.14,0,0,0,1-.14.67.67,0,0,0,.42-.51,5.16,5.16,0,0,0,.08-1.18v-8.69a5.21,5.21,0,0,0-.08-1.19.65.65,0,0,0-.4-.51,2.55,2.55,0,0,0-.93-.15v-.47h4.94a6,6,0,0,1,3.67.89,3.26,3.26,0,0,1,1.15,2.81,3.4,3.4,0,0,1-2.1,3.54,6.63,6.63,0,0,1-1.41.34,13.71,13.71,0,0,1-1.9.12Z"></path><path class="cls-3" d="M236.52,200.52h3.78q0-.83-.09-1.32a4.28,4.28,0,0,0-.2-.9c-.32-.93-.81-1.39-1.48-1.38s-1.29.52-1.65,1.56a5.38,5.38,0,0,0-.23.88,9.93,9.93,0,0,0-.13,1.16m6,.51h-6a11.65,11.65,0,0,0,.11,1.62,5.26,5.26,0,0,0,.33,1.2,2.47,2.47,0,0,0,2.33,1.75,2.72,2.72,0,0,0,1.62-.52,4,4,0,0,0,1.2-1.5l.43.29a4.62,4.62,0,0,1-1.54,1.84,4,4,0,0,1-2.22.58,4.69,4.69,0,0,1-3.44-1.31,5.16,5.16,0,0,1-1.21-3.54,5.4,5.4,0,0,1,1.17-3.58,4.42,4.42,0,0,1,3.31-1.35,4.28,4.28,0,0,1,2.32.6,3.45,3.45,0,0,1,1.32,1.74,3.94,3.94,0,0,1,.22.87,12.58,12.58,0,0,1,.09,1.31"></path><path class="cls-3" d="M242.93,196.76l3.35-.23c0,.34,0,.62,0,.85s0,.42,0,.6v.53q1.09-2,2.64-2a1.63,1.63,0,0,1,1.09.39,1.27,1.27,0,0,1,.43,1,1,1,0,0,1-.36.79,1.44,1.44,0,0,1-.93.3.73.73,0,0,1-.83-.57,1.53,1.53,0,0,0-.21-.5.33.33,0,0,0-.31-.12h0c-.35,0-.68.3-1,.83a3.56,3.56,0,0,0-.33.88,5.22,5.22,0,0,0-.1,1.1v3.3a5.81,5.81,0,0,0,.07,1.17.64.64,0,0,0,.4.49,3.3,3.3,0,0,0,.95.13v.42h-4.95v-.42a2.56,2.56,0,0,0,.9-.12.64.64,0,0,0,.37-.5,5.11,5.11,0,0,0,.08-1.17v-4.94a2.53,2.53,0,0,0-.22-1.43c-.16-.22-.52-.32-1.06-.3Z"></path><path class="cls-3" d="M254.47,196.53l0,1.77a3.45,3.45,0,0,1,3.1-1.8,2.31,2.31,0,0,1,2.53,1.87,4,4,0,0,1,1.33-1.42,3.1,3.1,0,0,1,1.74-.45,2.69,2.69,0,0,1,2.32,1,2.49,2.49,0,0,1,.41.95,7.25,7.25,0,0,1,.12,1.46v3.92a5.77,5.77,0,0,0,.08,1.17.65.65,0,0,0,.38.5,2.32,2.32,0,0,0,.9.11v.43h-4.84v-.43a2.21,2.21,0,0,0,.87-.11.68.68,0,0,0,.36-.5,5.77,5.77,0,0,0,.08-1.17V200a4.26,4.26,0,0,0-.35-2,1.16,1.16,0,0,0-1.13-.61,1.82,1.82,0,0,0-1.59,1,3.1,3.1,0,0,0-.55,1.8v3.76a5.92,5.92,0,0,0,.07,1.17.66.66,0,0,0,.37.5,2.23,2.23,0,0,0,.88.11v.43h-4.78v-.43a2.18,2.18,0,0,0,.86-.11.63.63,0,0,0,.36-.5,5.11,5.11,0,0,0,.08-1.17v-3.92c0-1.77-.47-2.64-1.44-2.62a1.9,1.9,0,0,0-1.52.86,3.44,3.44,0,0,0-.64,2.06v3.62a5.81,5.81,0,0,0,.07,1.17.65.65,0,0,0,.37.5,2.15,2.15,0,0,0,.86.11v.43H251v-.43a2.38,2.38,0,0,0,.9-.11.63.63,0,0,0,.37-.5,5,5,0,0,0,.08-1.17v-5a2.43,2.43,0,0,0-.22-1.41c-.16-.22-.53-.32-1.1-.31v-.43Z"></path><path class="cls-3" d="M280.07,197.35v6a8.5,8.5,0,0,0,.05,1,2.57,2.57,0,0,0,.13.64,1.07,1.07,0,0,0,.35.48.84.84,0,0,0,.52.18,2.13,2.13,0,0,0,1.25-.55l.25.44a3.62,3.62,0,0,1-2.44.89,2.13,2.13,0,0,1-2-1,1.7,1.7,0,0,1-.17-.48,4.14,4.14,0,0,1-.08-.73c0-.31,0-.73,0-1.25v-5.56h-1v-.53a2.26,2.26,0,0,0,1-.25,2.05,2.05,0,0,0,.71-.7,4.35,4.35,0,0,0,.39-.81,7.69,7.69,0,0,0,.27-1.1l.89-.09c0,.24,0,.48,0,.72s0,.54,0,.88,0,.78,0,1.31h2.16v.57Z"></path><path class="cls-3" d="M273.55,202.3v-1.37a5.44,5.44,0,0,0-2.72.7,2.06,2.06,0,0,0-.78,1.81,2.75,2.75,0,0,0,.4,1.53,1.23,1.23,0,0,0,1.05.57,1.81,1.81,0,0,0,1-.31,2.2,2.2,0,0,0,.73-.86,3,3,0,0,0,.24-.83,8.39,8.39,0,0,0,.08-1.24m3.32,3.4v.37c-.52,0-.73,0-1.28,0a3.73,3.73,0,0,1-1.26-.15,1.24,1.24,0,0,1-.53-.34,1.06,1.06,0,0,1-.24-.74,4.86,4.86,0,0,1-1.43,1.1,3.82,3.82,0,0,1-1.61.35,2.84,2.84,0,0,1-2-.71,2.55,2.55,0,0,1-.74-1.91c0-1.53,1-2.49,2.85-2.86a23,23,0,0,1,2.93-.34v-1.16a4,4,0,0,0-.3-1.92,1.11,1.11,0,0,0-1.09-.52,1.24,1.24,0,0,0-1.2.61,1.52,1.52,0,0,0-.19.49,5.46,5.46,0,0,0-.09.77.88.88,0,0,1-.28.68,1.27,1.27,0,0,1-.81.2c-.83,0-1.24-.28-1.25-.82a1.58,1.58,0,0,1,.29-.9,2.63,2.63,0,0,1,.82-.76,5.47,5.47,0,0,1,2.92-.68,3.84,3.84,0,0,1,2.64.73,2.13,2.13,0,0,1,.53.87,4.62,4.62,0,0,1,.16,1.35V201l0,1.55c0,.51,0,.83,0,1a8.65,8.65,0,0,0,.06,1.41.84.84,0,0,0,.29.59,1.74,1.74,0,0,0,.87.19"></path><path class="cls-3" d="M288.9,202.3v-1.37a5.47,5.47,0,0,0-2.72.7,2.06,2.06,0,0,0-.78,1.81,2.75,2.75,0,0,0,.4,1.53,1.22,1.22,0,0,0,1.05.57,1.71,1.71,0,0,0,1-.31,2.13,2.13,0,0,0,.73-.86,2.92,2.92,0,0,0,.24-.83,8.39,8.39,0,0,0,.08-1.24m3.32,3.4v.37c-.52,0-.73,0-1.28,0a3.73,3.73,0,0,1-1.26-.15,1.24,1.24,0,0,1-.53-.34,1,1,0,0,1-.23-.74,4.61,4.61,0,0,1-1.44,1.1,3.82,3.82,0,0,1-1.61.35,2.84,2.84,0,0,1-2-.71,2.58,2.58,0,0,1-.74-1.91q0-2.29,2.85-2.85a21.22,21.22,0,0,1,2.93-.35v-1.15a4.06,4.06,0,0,0-.3-1.93,1.11,1.11,0,0,0-1.09-.52,1.26,1.26,0,0,0-1.2.61,1.79,1.79,0,0,0-.19.49,5.63,5.63,0,0,0-.09.78.88.88,0,0,1-.28.67,1.27,1.27,0,0,1-.81.2c-.83,0-1.24-.28-1.25-.82a1.58,1.58,0,0,1,.29-.9,2.74,2.74,0,0,1,.82-.76,5.47,5.47,0,0,1,2.92-.68,3.79,3.79,0,0,1,2.64.74,1.93,1.93,0,0,1,.53.86,4.3,4.3,0,0,1,.16,1.35V201l0,1.55c0,.51,0,.83,0,1a11.82,11.82,0,0,0,.06,1.41.8.8,0,0,0,.29.59,1.74,1.74,0,0,0,.87.19"></path><polygon class="cls-19" points="328.94 183.77 328.9 184.45 342.08 199.91 342.55 199.99 342.61 199.96 342.84 199.53 337.22 180.72 336.27 180.08 328.94 183.77"></polygon><polygon class="cls-20" points="328.9 184.45 342.08 199.91 342.55 199.99 332.83 185.2 328.9 184.45"></polygon><polygon class="cls-21" points="336.27 180.08 332.91 184.03 334.28 184.63 337.22 180.72 337.22 180.72 336.27 180.08"></polygon><polygon class="cls-22" points="328.9 184.45 332.83 185.2 332.91 184.03 328.94 183.77 328.9 184.45"></polygon><polygon class="cls-22" points="334.28 184.63 342.61 199.96 342.84 199.53 337.22 180.72 334.28 184.63"></polygon><polygon class="cls-23" points="350.08 179.71 358.6 183.62 358.62 184.73 344.63 205.91 344 206.07 343.9 206.03 343.7 205.55 349.34 180.12 350.08 179.71"></polygon><polygon class="cls-24" points="352.94 185.21 344 206.07 344.63 205.91 358.62 184.73 352.94 185.21"></polygon><polygon class="cls-25" points="349.34 180.12 343.7 205.55 343.9 206.03 351.33 184.33 349.34 180.12"></polygon><polygon class="cls-26" points="352.62 183.7 352.94 185.21 358.62 184.73 358.6 183.62 358.6 183.62 352.62 183.7"></polygon><polygon class="cls-24" points="349.34 180.12 351.33 184.32 352.62 183.7 350.08 179.71 349.34 180.12"></polygon><polygon class="cls-27" points="337.07 173.68 337.41 173.03 348.31 172.91 349.02 173.64 343.79 191.1 343.46 191.29 343.45 191.29 343.09 191.05 337.07 173.68"></polygon><polygon class="cls-28" points="337.07 173.68 341.29 175.78 342.08 174.85 337.41 173.03 337.07 173.68"></polygon><polygon class="cls-29" points="337.07 173.68 343.09 191.05 343.45 191.29 341.29 175.78 337.07 173.68 337.07 173.68"></polygon><polygon class="cls-28" points="343.34 175.79 343.46 191.29 343.79 191.1 349.02 173.64 343.34 175.79"></polygon><polygon class="cls-30" points="348.31 172.91 342.08 174.85 343.34 175.78 349.02 173.64 348.31 172.91 348.31 172.91"></polygon><path class="cls-31" d="M38.77,213.13A14.12,14.12,0,1,0,24.66,199,14.14,14.14,0,0,0,38.77,213.13Z"></path><path class="cls-18" d="M30.64,202.18a4.27,4.27,0,0,0,4.28,4.22,70.45,70.45,0,0,0,7.69,0,4.51,4.51,0,0,0,4.29-4.22c.1-1.18.13-2.37.12-3.55h0a3.7,3.7,0,0,0-3.52-3.32h-9a.58.58,0,0,1-.58-.57h0a.58.58,0,0,1,.58-.58h9c-.08-2.14-2.45-2.54-3.58-2.61h-.58c-1.48,0-3,0-4.42.12a4.29,4.29,0,0,0-4.28,4.22,39,39,0,0,0,0,6.3ZM44.21,201v.76a.52.52,0,0,1-.52.52h0a.52.52,0,0,1-.52-.52V201a.85.85,0,0,1-.38-.69.9.9,0,0,1,1.8,0A.85.85,0,0,1,44.21,201Z"></path><path class="cls-32" d="M124.07,197.74v2.55s-.87,1.71-3.88,2.13-3-1.46-2.79-1.94.92-1.15,3.41-1.56c2.66-.43,3.27-1.18,3.27-1.18Zm3.55-2.46c0-3.94-3.8-5.78-7.19-5.45-3.16.3-5.81,1.78-6.63,5.07l3.27.81c1-3,4.91-3.82,6.55-1.71a.94.94,0,0,1-.39,1.51c-1,.49-2.8.35-4.67.86-7.92,2.17-5.43,9.41,1.13,9.23a7,7,0,0,0,4.64-2l0,1.61h3.25v-9.95Zm-62-1.79A4.33,4.33,0,1,0,70,197.82a4.32,4.32,0,0,0-4.31-4.33Zm8.45-3.2v14.64a7.76,7.76,0,0,1-8.09,8.2A9.15,9.15,0,0,1,58.48,210l2.69-2.41a5.63,5.63,0,0,0,4.77,1.9,4,4,0,0,0,4-4.12v-1.51A7.46,7.46,0,0,1,65,205.74a7.83,7.83,0,0,1,0-15.65A7.5,7.5,0,0,1,70,192v-1.66Zm73-.24h-4.43l-4.39,9.62L133.2,190h-4.44l7.3,13.7-3.86,7.95h4.45l10.43-21.64Zm-43.32,3.44a4.33,4.33,0,1,1-4.32,4.33,4.32,4.32,0,0,1,4.32-4.33Zm-8.45-3.2h4.13V192a7.52,7.52,0,0,1,4.94-1.86,7.83,7.83,0,0,1,0,15.65,7.48,7.48,0,0,1-4.94-1.87v7.82H95.31v-21.4Zm-11,3.08a4.55,4.55,0,1,1-4.7,4.54,4.62,4.62,0,0,1,4.7-4.54Zm0-3.57a8.12,8.12,0,1,0,8.38,8.11A8.25,8.25,0,0,0,84.27,189.8Z"></path><path class="cls-33" d="M1075.07,58.09a17.63,17.63,0,0,1-17.84-17.93,17.8,17.8,0,1,1,35.6,0A17.64,17.64,0,0,1,1075.07,58.09ZM1063.9,40.33c.06.61.12,1.4.22,2.19a7.4,7.4,0,0,0,.22,1,11,11,0,0,0,9.79,8.6,10.4,10.4,0,0,0,9.34-4,13.29,13.29,0,0,0,1-14.59,10.75,10.75,0,0,0-15.33-3.71C1065.46,32.27,1064,35.89,1063.9,40.33Z"></path><path class="cls-33" d="M1149,22.2a17.58,17.58,0,0,1,17.79,18,17.8,17.8,0,1,1-35.6-.08A17.6,17.6,0,0,1,1149,22.2Zm11.2,18c-.16-1.11-.25-2.25-.5-3.34a11,11,0,0,0-9.52-8.68,10.2,10.2,0,0,0-9.66,4.07c-3.31,4.44-3.57,9.31-1.09,14.21A10.78,10.78,0,0,0,1156.71,49,12.8,12.8,0,0,0,1160.23,40.16Z"></path><path class="cls-33" d="M1094.27,23.12h1.24c4.1,0,8.2,0,12.3,0,.55,0,.77.12.75.72,0,1.45,0,2.91,0,4.36,0,.58-.12.82-.76.78-.86-.06-1.73,0-2.72,0,2.74,6.47,5.43,12.84,8.15,19.29,2.64-6.45,5.23-12.82,7.87-19.28h-3.38v-5.8H1129c-.12,1.38.24,2.75-.35,4.11-2.84,6.6-5.64,13.22-8.46,19.83-1.47,3.45-3,6.9-4.4,10.36a.94.94,0,0,1-1,.64,5.83,5.83,0,0,1-5.3-2.51,16,16,0,0,1-1.35-2.72q-5-11.61-10.06-23.23a1,1,0,0,0-1.11-.7c-.73,0-1.47,0-2.21,0-.35,0-.5-.09-.5-.47C1094.27,26.74,1094.27,25,1094.27,23.12Z"></path><path class="cls-34" d="M859.61,183.81a50.37,50.37,0,0,1,1.73,5.53l-3.42,0,1.69-5.5Zm11.22-5.08c-1.65.49-1.65,2.23-1.65,4.07,0,3-.12,8.65,0,11.29.14,3.13,3.61,3.45,4.5,1,.36-1,.2-6.94.2-8.24,0-1.82.09-3.85,0-5.64s-1.2-3-3-2.48Zm6,4.87c-2.64,0-2.69,3,0,3.18v6.09a5.53,5.53,0,0,0,.3,2.66,2.33,2.33,0,0,0,4,.06c.63-1.27,0-6.39.31-8.81,1.42,0,2.93-.05,2.89-1.63s-1.44-1.55-2.92-1.55c0-1-.11-1.56.94-1.66s1.62.21,2-.5c.75-1.3-.3-2.48-2.14-2.74a6,6,0,0,0-4.26.85c-1.2.86-1.13,2.67-1.13,4Zm14,3c1.89-.4,2.4,1.33,2.5,2.93s-.08,3.75-1.78,3.91c-2,.17-2.58-1.28-2.67-3.06s.35-3.44,1.95-3.78ZM894,196c.34.24.35.4.77.6a2.3,2.3,0,0,0,3-1l.1-11.1c-.61-1.47-2.83-2-3.78-.58-.88-.18-1.31-1-3.61-.78a7,7,0,0,0-3.25,1.07,6.93,6.93,0,0,0-2.93,5.7,6.4,6.4,0,0,0,2.83,5.8,7.14,7.14,0,0,0,3.26,1.05c2.28.17,2.49-.43,3.58-.79Zm-37.14-2.74,5.64,0a6.32,6.32,0,0,0,1.26,2.95A2.53,2.53,0,0,0,867,196c1-1,.8-1.94.31-3.32l-1.12-3.2c-.76-2.13-1.51-4.25-2.23-6.33-.95-2.7-.92-4.38-4.3-4.37-1.41,0-2.49.29-3,1.2s-3.78,10.59-4.54,12.67c-.46,1.28-.66,2.39.22,3.28a2.36,2.36,0,0,0,4.06-1c.18-.56.34-1.08.51-1.66Z"></path><path class="cls-35" d="M851.61,206.89l0,1.86h85c4.7,0,9.41,0,14.12,0a6.21,6.21,0,0,0,4.83-2.21c1.42-1.95,1.42-2.75,1.42-5.63-1-.17-89.94,0-99.12,0a6.15,6.15,0,0,0-6.22,6Z"></path><path class="cls-35" d="M949.09,180.46c.27.65.41.43.38,1.5a11.47,11.47,0,0,1-.22,1.75c-.2,1-.5,2.07-.74,3.11-.93,4.09-2.91,10.72,3.34,9.93,2.09-.27,4.52-1.47,3.17-3.77-.9.52-3.67,2.45-3.67-.49,0-1.81.67-3.57.92-5.29,2,0,4.56.43,4.68-2.57a16.14,16.14,0,0,1-4.14.33c.19-1.14,1.24-3.64.61-4.51-.82-1.11-3.17-.27-4.33,0Zm-43.55,6.72c.18-1.07,1-3,0-3.73s-3-.19-3.83.31c.53.44.42,1.17.31,2a52.4,52.4,0,0,1-1.28,6.15c-.24.93-1.06,3.1-.6,4,.63,1.16,2.53.83,3.78.42-.11-1-.62-1,.4-3.06.45-.91.87-1.76,1.32-2.63a25.83,25.83,0,0,1,1.49-2.46A12.77,12.77,0,0,1,908,187c.17-.21.31-.28.48-.46s.21-.35.65-.39c.15,1.13-1,5.6-1.36,6.93-.24,1-.81,2.49,0,3.22s2.62.37,3.38-.08c-.47-1.23-.1-2,.42-3.07.45-.92.85-1.74,1.34-2.61s2.52-4.35,3.42-4.39c.16.44-1.16,6.14-1.34,7.12-.25,1.39-.18,2.75,1,3.23,1.37.59,2.49-.25,3.42-.62-.14-.32,0,0-.17-.27s0,0-.19-.29c-.66-1.31,0-3.64.25-5s1.12-4.61,1-5.8c-.29-2.18-2.72-1.73-4.35-.61a11.09,11.09,0,0,0-1.75,1.64c-.67.71-1.18,1.54-1.55,1.93.1-1.12.65-2.35.18-3.47s-1.58-1.26-2.87-.82a8.1,8.1,0,0,0-3.42,2.78c-.18.21-.26.32-.46.59l-.48.59Zm25-.39c-.27.34-1.64,3-2.59,4.33-.42.58-3.09,4.66-2.85,1,.11-1.68,1.09-7.22,3.49-6.8a3.3,3.3,0,0,1,1.95,1.48Zm-1.22,5.52c-.05,1.5-.36,3.31.77,4a3.31,3.31,0,0,0,3.75-.41,6.24,6.24,0,0,1-.51-3.23,24.26,24.26,0,0,1,1.09-6.28l1-2.66a5.15,5.15,0,0,0-3.29-.47c-.38.1-.65.42-1,.36-.11,0-.7-.32-.94-.39-3.81-1.19-7,2.21-8.47,5.8-1,2.39-1.54,7.26,1.42,7.72a4.38,4.38,0,0,0,3.77-1.5,15.77,15.77,0,0,0,1.25-1.38,16.88,16.88,0,0,1,1.16-1.57Zm11.88-5c0-1.18,1.08-2.92,0-3.77s-2.79-.14-3.86.17c.56,1.44.27,2.39-.1,4.14-.29,1.37-.62,2.76-1,4.1-.24.92-1.1,3.3-.59,4.08.71,1.1,2.73.73,3.94.31-.14-1.11-.59-.79.32-3a24.87,24.87,0,0,1,1.27-2.59c.42-.77,1.78-2.91,2.63-3.2.69-.24,1,.21,1.27.59,1.55-1,3.57-5.59.61-5.1-1.79.3-3.56,2.93-4.53,4.24Z"></path><path class="cls-36" d="M851.61,212.35h96.54c2.41,0,4.08.2,5.93-.95,1-.62,2.72-2.44,2.73-4.11-.33.23-.5.56-.83.84-3,2.65-5.58,2.08-9.8,2.08H851.62v2.14Z"></path><path class="cls-37" d="M679,177.79l-30.86,4.11a1.65,1.65,0,0,0-1.36,1.8V213a3.76,3.76,0,0,0,4.11,3.43h35a4.11,4.11,0,0,0,3.12-3.87V188.38s.06-3.43-4-3.43H651.22a2.16,2.16,0,0,1-1.65-1.59c-.1-.55.12-.6.7-.6h31v-3.34A1.84,1.84,0,0,0,679,177.79Z"></path><path class="cls-11" d="M668.52,211.45c-2.56,0-4.44-1-7.22-3.79a1.26,1.26,0,1,1,1.78-1.79c2.92,2.89,4.28,3.61,6.62,3,1.35-.37,2.57-2.1,2.64-4.09.06-1.54-1-2.55-3.23-3-4-.79-6.29-2.3-6.94-4.49-.52-1.77.16-3.74,1.88-5.41l.07-.06c3.69-3.09,8-.79,9.71.86a1.26,1.26,0,1,1-1.72,1.84c-.15-.14-3.46-3.15-6.33-.8a3.1,3.1,0,0,0-1.19,2.85c.35,1.19,2.13,2.16,5,2.74,4.9,1,5.31,4.21,5.27,5.55-.11,2.93-2.56,6.21-4.86,6.5A11.29,11.29,0,0,1,668.52,211.45Z"></path><path class="cls-37" d="M702,184.78a6.89,6.89,0,0,0-1.79-.77,5.07,5.07,0,0,1-2.69-1.46,1.82,1.82,0,0,1,.08-2.09,2.07,2.07,0,0,1,1.78-.93,5.8,5.8,0,0,1,3.07.72.57.57,0,0,0,.77-.26.57.57,0,0,0-.26-.77,7.11,7.11,0,0,0-3.68-.85,3.23,3.23,0,0,0-2.71,1.52,2.92,2.92,0,0,0,0,3.34,6.24,6.24,0,0,0,3.32,1.87,6.61,6.61,0,0,1,1.52.64,2.77,2.77,0,0,1,1.2,1.27,2,2,0,0,1,.08,1.37,2.88,2.88,0,0,1-.3.68s0,.06-.07.11a2.43,2.43,0,0,1-2.13,1,7.12,7.12,0,0,1-3.55-1.2,4.4,4.4,0,0,1-.53-.34.6.6,0,0,0-.8.16.57.57,0,0,0,.16.8,5.94,5.94,0,0,1,.54.39,8.28,8.28,0,0,0,4.15,1.36,3.53,3.53,0,0,0,3.09-1.54l.1-.16a3.73,3.73,0,0,0,.43-1,3.07,3.07,0,0,0-.13-2.15A3.93,3.93,0,0,0,702,184.78Z"></path><path class="cls-37" d="M710.79,183.51a3.68,3.68,0,0,0-2,.07,5.53,5.53,0,0,0-2,1.12v-5.78a.58.58,0,0,0-1.16,0v11.9a.58.58,0,0,0,1.16,0v-4.45l0,0a4.94,4.94,0,0,1,2.29-1.66,2.45,2.45,0,0,1,1.36,0,1.71,1.71,0,0,1,.92.62,2.3,2.3,0,0,1,.35,1.3v4.26a.57.57,0,0,0,.57.58.58.58,0,0,0,.58-.58v-4.26a3.27,3.27,0,0,0-.58-1.95A2.75,2.75,0,0,0,710.79,183.51Z"></path><path class="cls-37" d="M718.58,183.4a4,4,0,1,0,2.82,1.17A4,4,0,0,0,718.58,183.4Zm2,6a2.86,2.86,0,0,1-4.87-2,2.85,2.85,0,0,1,2.86-2.85,2.85,2.85,0,0,1,2,4.87Z"></path><path class="cls-37" d="M728.3,183.4a4,4,0,0,0-2.82,1.17.8.8,0,0,0-.13.13V184a.57.57,0,0,0-.57-.58.58.58,0,0,0-.58.58v11.34a.58.58,0,0,0,.58.58.57.57,0,0,0,.57-.58v-5.24l.13.13a4,4,0,1,0,2.82-6.81Zm2,6a2.89,2.89,0,0,1-2,.83,2.85,2.85,0,1,1,2-.83Z"></path><path class="cls-37" d="M740.24,184.46a3.54,3.54,0,0,0-2.54-1.06,3.43,3.43,0,0,0-2.53,1.06,4.33,4.33,0,0,0-.81,4.71,3.11,3.11,0,0,0,1.34,1.65,3.73,3.73,0,0,0,2.13.56,7.45,7.45,0,0,0,2.66-.61.58.58,0,0,0,.31-.75.59.59,0,0,0-.76-.31,5.69,5.69,0,0,1-2.22.53,2.73,2.73,0,0,1-1.51-.38,2.54,2.54,0,0,1-.9-1.12,4.84,4.84,0,0,1-.25-1.06h5.3c.29,0,1.23.06.74-1.55A4,4,0,0,0,740.24,184.46Zm-5,2a3,3,0,0,1,.75-1.23,2.51,2.51,0,0,1,1.73-.72,2.47,2.47,0,0,1,1.73.72,3.18,3.18,0,0,1,.77,1.23Z"></path><path class="cls-37" d="M749.94,186.13a3.78,3.78,0,0,0-1-1.67,3.5,3.5,0,0,0-2.53-1.06,3.41,3.41,0,0,0-2.53,1.06,4.34,4.34,0,0,0-.82,4.71,3.13,3.13,0,0,0,1.35,1.65,3.71,3.71,0,0,0,2.13.56,7.45,7.45,0,0,0,2.66-.61.57.57,0,0,0,.3-.75.58.58,0,0,0-.75-.31,5.73,5.73,0,0,1-2.23.53,2.72,2.72,0,0,1-1.5-.38,2.47,2.47,0,0,1-.9-1.12,5.48,5.48,0,0,1-.26-1.06h5.31C749.49,187.68,750.44,187.74,749.94,186.13Zm-6,.38a2.83,2.83,0,0,1,.75-1.23,2.44,2.44,0,0,1,3.46,0,3.3,3.3,0,0,1,.77,1.23Z"></path><path class="cls-37" d="M703.87,194.24h-8.29v22.19h3.36V209.8h5.29a9.82,9.82,0,0,0,5.06-1.33,6.92,6.92,0,0,0,3.63-6.24,7.35,7.35,0,0,0-3.29-6.22A9.9,9.9,0,0,0,703.87,194.24Zm1.06,12h-6v-8.69h5.68c.82.09,4.42.72,4.42,4.57C709,206.25,704.93,206.25,704.93,206.25Z"></path><path class="cls-37" d="M726.26,200.66v1.56a7.94,7.94,0,1,0,0,12.32v1.78h3.36V200.66Zm-5,12.71a5,5,0,1,1,5-5h0A5,5,0,0,1,721.26,213.37Z"></path><polygon class="cls-37" points="731.14 200.44 735.64 200.44 740.92 210.55 746.01 200.44 750.09 200.44 737.98 222.99 734.01 222.99 738.63 214.62 731.14 200.44"></polygon><rect class="cls-38" x="39.15" y="320.41" width="84.71" height="56.76" rx="1.79"></rect><path class="cls-39" d="M83.4,360.79c-15.1.85-41.77-1.57-41.61-13.25.16-12.22,26.25-16.63,38-16.36v-1.86l3.39,1.75,3.39,1.75-3.39,1.75-3.39,1.75v-1.85c-11.29,0-34.9,3.63-35,13.9C44.75,356.88,68,359.36,83.4,360.79Z"></path><path class="cls-18" d="M82.92,361c-2.07.11-4.36.15-6.75.12-7.43-.09-15.91-.92-22.6-2.93s-11.72-5.25-12-10.15c0-.17,0-.35,0-.53v-.08c.14-6.13,6.62-10.31,14.58-12.92a78.68,78.68,0,0,1,23.26-3.6h.2v-2l7.49,3.86-6.38,3.29c2.08-.1,4.36-.15,6.75-.12,7.43.1,15.91.93,22.61,2.93s11.71,5.25,12,10.15c0,.17,0,.35,0,.53v.09c-.14,6.13-6.63,10.3-14.59,12.92a78.31,78.31,0,0,1-23.26,3.59H84v2l-7.5-3.87L82.92,361Zm-3-24.48-.26,0v-1.83c-6.65,0-17.38,1.3-25.15,4.38-5.41,2.16-9.37,5.19-9.41,9.3s5.68,6.81,13.3,8.65,17.37,2.83,25.07,3.54l.35,0,.27,0v1.83c6.64,0,17.38-1.3,25.14-4.38,5.41-2.15,9.37-5.18,9.41-9.29s-5.68-6.81-13.3-8.65-17.37-2.84-25.07-3.55l-.35,0Zm7.6-.11c-1.33,0-2.63,0-3.88,0a167.55,167.55,0,0,1,21.8,3.25c7.83,1.88,13.68,4.69,13.64,9.08s-4.11,7.49-9.69,9.7c-7.9,3.14-18.86,4.4-25.53,4.42h-.22v-1.71l-6.07,3.13,6.07,3.13v-1.71h.65a77.64,77.64,0,0,0,23.11-3.57c7.8-2.56,14.15-6.61,14.28-12.5v-.08c0-.17,0-.34,0-.51-.26-4.66-5.09-7.77-11.67-9.74s-15.09-2.82-22.48-2.91Zm-11.3,24.27c1.33,0,2.63,0,3.88,0a169.28,169.28,0,0,1-21.8-3.24c-7.82-1.89-13.68-4.7-13.64-9.09s4.11-7.48,9.69-9.7c7.9-3.14,18.86-4.4,25.53-4.42h.22V336l6.07-3.13-6.07-3.13v1.71H79.4A78,78,0,0,0,56.29,335c-7.8,2.56-14.14,6.61-14.28,12.5v.09c0,.16,0,.33,0,.5.26,4.67,5.09,7.78,11.67,9.75S68.78,360.61,76.17,360.71Z"></path><path class="cls-39" d="M80.24,336.36c15.1-.85,41.77,1.56,41.61,13.24-.16,12.23-26.25,16.64-38,16.37v1.85l-3.39-1.75L77,364.32l3.39-1.75,3.39-1.74v1.85c11.29,0,34.9-3.64,35-13.9C118.89,340.27,95.67,337.79,80.24,336.36Z"></path><path class="cls-18" d="M52.9,342.89h5.23a5.85,5.85,0,0,1,2.23.33,2.58,2.58,0,0,1,1.19,1,3.17,3.17,0,0,1,.46,1.6A3.53,3.53,0,0,1,61.4,348a3.71,3.71,0,0,1-1.71,1.38,8.31,8.31,0,0,1-2.93.42H55.19l-.72,4H50.88l1.4-7.55h-.83l1.45-3.4Zm2.7,4.74h1.2a1.93,1.93,0,0,0,1.35-.47,1.36,1.36,0,0,0,.49-1.12c0-.66-.41-1-1.16-1h-1.4Z"></path><path class="cls-18" d="M73.66,353.84H69.73l-2.48-4.19-.8,4.19H63.31l1.46-7.56h-.94l1.6-3.39h5.33a3.32,3.32,0,0,1,2.57.88,2.56,2.56,0,0,1,.53,2.34,4.47,4.47,0,0,1-.68,1.68,4.69,4.69,0,0,1-2.47,1.55l3,4.5Zm-6-6.53h1.34a1.78,1.78,0,0,0,1-.27,1.14,1.14,0,0,0,.51-.78c.13-.7-.2-1.05-1-1.05H68.11Z"></path><polygon class="cls-18" points="81.18 342.89 79.23 353.83 75.9 353.83 77.25 346.25 76.42 346.25 77.85 342.89 81.18 342.89"></polygon><polygon class="cls-18" points="81.74 353.83 85.08 345.48 84.11 345.48 86.11 342.89 89.75 342.89 91.02 348.57 94.92 342.89 98.43 342.89 98.43 353.83 95.06 353.83 95.04 347.48 90.72 353.91 89.27 353.83 87.52 347.48 85.12 353.83 81.74 353.83"></polygon><path class="cls-18" d="M112.76,353.84H109l-.17-1.8h-4.07l-1,1.8H99.63l5.38-8.36H104l2.72-2.59h4.11l2,10.95Zm-4.19-4.12h0l-.38-4h0l-2.14,4Z"></path><path class="cls-40" d="M251.17,330.51v40.13a8.56,8.56,0,0,1,.21.87,4.63,4.63,0,0,0,2.4,2.8,7.86,7.86,0,0,0,1.59.47h73.21a7.51,7.51,0,0,0,1.59-.47,4.64,4.64,0,0,0,2.39-2.73,6.74,6.74,0,0,1,.22-.86V330.46a4.74,4.74,0,0,0-4.21-4.16h-73.3a5.06,5.06,0,0,0-2.79,1.39,4.9,4.9,0,0,0-.86,1.24A6,6,0,0,0,251.17,330.51Z"></path><path class="cls-18" d="M287.71,339.66c.07.42,0,10.13,0,10.83,0,1.58-.14,3,1.37,4.06a3.54,3.54,0,0,0,4.14-.1,25.1,25.1,0,0,0,2.87-2.56l8.33-8c.09,1.43,0,3.11,0,4.57,0,1.29-.17,3.23.31,4.28a3.33,3.33,0,0,0,4.59,1.51A36.59,36.59,0,0,0,313,351c1.33-1.23,2.76-2.68,4.09-3.92l.6-.55c.39-.37,2.1-2.07,2.36-2.25.06,2.13,0,4.35,0,6.49,0,1.52.3,2.58,1.49,3.37a2.8,2.8,0,0,0,1.19.46V338.12a9.84,9.84,0,0,0-1.06.94l-9.33,8.78c-.25.22-.46.45-.71.67l-1.37,1.29c-.34.31-1.93,1.85-2.12,1.93a.62.62,0,0,1-.83-.4c-.08-.25,0-12.46,0-13.45a2,2,0,0,0-.42.34l-1.13,1c-.13.13-.25.2-.38.33l-6.11,5.59c-.13.13-.27.22-.4.35s-.23.22-.37.34-.26.25-.39.37l-5.73,5.21c-.31.28-.93.95-1.24,1-.46.07-.71-.28-.72-.7,0-1,0-2,0-2.94,0-3.91,0-7.84,0-11.76H280.27a3.3,3.3,0,0,0,2.49,2.54C283.52,339.75,286.63,339.62,287.71,339.66Z"></path><path class="cls-18" d="M294.38,344.33v-4.66c1.11-.11,1.78.21,3-.76l2-1.85-7.79,0v13.31c.19-.09,2.28-2.06,2.6-2.33l1.86-1.7c.7-.6,1.49-1.39,2.22-2l.73-.69c.48-.43,1-.88,1.49-1.36l1.87-1.68c.16-.15.22-.22.37-.34l2.95-2.7c.14-.12.23-.23.37-.35l1.12-1c.2-.17.5-.56.95-.35s.36.57.36,1.05c0,1.25-.05,12.22,0,12.76.22-.12,3.78-3.55,4.62-4.31.13-.11.23-.24.36-.35l3.47-3.25c.29-.31.5-.44.77-.73l3.85-3.63a13.06,13.06,0,0,1,1.59-1.39.64.64,0,0,1,.78.68c.05,2,0,4,0,6,0,.87-.06,11.38,0,11.94a3.14,3.14,0,0,0,1.94-1.13,3.55,3.55,0,0,0,.75-2.41V338.53a14,14,0,0,0-.12-3,3.34,3.34,0,0,0-5.41-1.57c-.32.25-2.93,2.85-3.61,3.47l-2.8,2.67c-.14.13-.25.27-.4.4-.38.34-3.08,3-3.21,3,0-1.55,0-3.18,0-4.74s.2-3.14-.59-4.23a3.49,3.49,0,0,0-3.38-1.42,3.15,3.15,0,0,0-1.73.67c-.58.46-3.42,3.26-4.29,4.07l-1.83,1.77c-1.22,1.13-2.47,2.4-3.69,3.52-.21.19-.39.4-.6.6S294.46,344.23,294.38,344.33Z"></path><path class="cls-18" d="M257.84,353.12a6.42,6.42,0,0,0,.89-.8l3.93-3.68c.67-.6,1.52-1.48,2.2-2.07l5.24-4.94c.31-.28.57-.55.88-.81l3.07-2.89c.16-.15.27-.28.43-.42s.57-.54.87-.82.59-.73,1.12-.47.36.77.36,1.33v15.3c0,.52,0,1.23,0,1.72a3.29,3.29,0,0,0,2.34-1.81,10.43,10.43,0,0,0,.32-3.87v-8.36c0-1.36.05-2.82,0-4.18a3.31,3.31,0,0,0-4.78-2.91,17.63,17.63,0,0,0-2.76,2.44l-10.17,9.72c-.18.17-.32.34-.51.51l-.55.51-2.14,2.05a6,6,0,0,0-.5.51A3.36,3.36,0,0,0,257.84,353.12Z"></path><path class="cls-18" d="M258.78,354a2.91,2.91,0,0,0,1.86.6,3.67,3.67,0,0,0,2.8-1.44l1.81-1.7c.13-.13.22-.24.35-.36,1.4-1.27,2.95-2.87,4.34-4.16l2.93-2.78c.05,2.15,0,4.36,0,6.52a3.74,3.74,0,0,0,.65,2.59,3.26,3.26,0,0,0,2,1.27V338.31c-.1.05-1,.84-1.05.95-.34.37-1.22,1.11-1.55,1.47l-3.14,3c-1,.87-2.14,2.05-3.14,2.95-.2.18-.32.29-.52.5s-.36.31-.54.48l-1,1a6.17,6.17,0,0,0-.54.48,6.08,6.08,0,0,1-.53.5c-.18.16-.34.34-.52.5Z"></path><path class="cls-18" d="M262.26,362.53c.92,0,2.26-.15,3,.25,1.21.66,1.38,3.11-1.77,3.11-1.09,0-2.21,0-3.3,0a11.16,11.16,0,0,1,.31-1.2l.32-1.2,1.28-4.77c.29-1.1.37-.87,2.15-.87.9,0,2,0,2.47.55a1.55,1.55,0,0,1-.44,2.1,4.54,4.54,0,0,1-2.57.46c-.63,0-.9-.13-1.13.38a6.84,6.84,0,0,0-.32,1.2ZM257.33,368c1.6,0,3.22,0,4.82,0a9.7,9.7,0,0,0,4.24-.59,3.31,3.31,0,0,0,2.05-2.81c.14-2.22-1.77-2.54-2.06-2.85a3.61,3.61,0,0,0,2.62-1.52,2.9,2.9,0,0,0-.21-3.2,4.1,4.1,0,0,0-2.94-1.19,15.26,15.26,0,0,0-4,.17,3,3,0,0,0-1.94,2.19C259.74,358.86,257.33,367.67,257.33,368Z"></path><path class="cls-18" d="M305.82,359.67l.24-.95a14.43,14.43,0,0,0-1.74,0c-.58.07-.73.39-.87.92L302,365.19c-.11.41-.72,2.52-.7,2.76h2.31c.4-.92,1.25-5.19,1.78-6.14.91-1.63,2.92-1.42,3.24-.3a4.6,4.6,0,0,1-.29,2.23c-.22.84-1,3.6-1.12,4.21h2.28c.15,0,.3-.85.33-1,.1-.36.2-.7.29-1.05a34.2,34.2,0,0,1,1.2-4.09c.81-1.57,2.89-1.5,3.25-.35a4.59,4.59,0,0,1-.29,2.29c-.15.57-1.09,3.9-1.1,4.18h2.31c.11-.2.89-3.24,1-3.73.31-1.15.9-2.79.54-4-.66-2.23-3.67-2.14-5.41-.42-.17.15-.42.52-.58.63-.6-2.32-3.35-2.25-4.64-1.23A5.17,5.17,0,0,1,305.82,359.67Z"></path><path class="cls-18" d="M280.26,335.74h20.52a3,3,0,0,0,.49-1.17c.16-1.9-2.18-1.55-3.54-1.55H284.3a4.09,4.09,0,0,0-2.73.64A3.24,3.24,0,0,0,280.26,335.74Z"></path><path class="cls-18" d="M276.81,366.91a7.76,7.76,0,0,0-.95-1.33c-.18-.07-.74.47-1.67.6-2.5.35-3.39-1.76-2.62-3.69a3.14,3.14,0,0,1,2.37-2.21,2.16,2.16,0,0,1,1.8.38,1.31,1.31,0,0,1,.42.73c.06.25.13.84-.08,1h-2.67c-.52,0-.67.06-.83.5a10.72,10.72,0,0,0-.28,1.08c.67.06,3.94,0,4.89,0s1-.4,1.16-1.29c.7-4.17-4-5.4-6.85-3.24a5.57,5.57,0,0,0-2.06,2.83,4.94,4.94,0,0,0,.32,4.05c1.06,1.69,3.57,2.06,5.42,1.47A4.1,4.1,0,0,0,276.81,366.91Z"></path><path class="cls-18" d="M319.56,361a8.64,8.64,0,0,1,2.25-.44c2.73-.1,2.21,1.46,1.84,2.9a5.28,5.28,0,0,1-.74,2c-1.06,1.3-3.13,1.32-3.51.17-.43-1.32,1.81-2.18,3.06-2.27.11-.24.58-1,.49-1.25a5.11,5.11,0,0,0-2.09.06c-4.69,1-4.87,4.92-1.79,5.71a4.12,4.12,0,0,0,2.06-.11,3.78,3.78,0,0,0,1.54-.78l-.24,1h2.23a16.65,16.65,0,0,0,.55-2c.19-.68.35-1.34.54-2,.37-1.35.91-2.92.09-4.13-1.13-1.67-5-1.34-6-.8C319.1,359.44,319.41,360.24,319.56,361Z"></path><path class="cls-18" d="M295.29,361c.32-.06.68-.21,1-.29,1-.19,2.67-.33,3.18.55.35.59,0,1.57-.17,2.2-.33,1.33-.63,2.66-2.42,3-2.33.39-3.08-2.5,1.23-3.08.11-.2.59-1.05.5-1.22-.31-.24-1.66-.05-2.08,0a6.71,6.71,0,0,0-1.72.59,3.6,3.6,0,0,0-2.14,2.48,2.5,2.5,0,0,0,2,2.62,4,4,0,0,0,2.06-.07,3.91,3.91,0,0,0,1.59-.78l-.23,1h2.25c.14-.33.92-3.41,1.08-4,.37-1.37.93-2.95,0-4.16-1.25-1.67-5.24-1.19-6-.69a.91.91,0,0,0-.44.85A4.31,4.31,0,0,0,295.29,361Z"></path><path class="cls-18" d="M285.41,365.12c-.26.18-.57.61-.86.87-1.06.95,1.89,1.86,2.78,2,2.22.3,4.12-.6,4.52-2.42.76-3.48-4.45-2.94-3.77-4.79a1.1,1.1,0,0,1,1.12-.65,5.13,5.13,0,0,1,2.59.94,5,5,0,0,1,.56-.69c.39-.48.75-.77-.12-1.25a5.9,5.9,0,0,0-2.77-.72c-2.07,0-3.77,1.2-3.68,3.31s3.08,2.31,3.77,3.21a.86.86,0,0,1-.29,1.17c-.87.55-2.48.05-3.33-.58A3.63,3.63,0,0,0,285.41,365.12Z"></path><path class="cls-18" d="M277.79,368a14.38,14.38,0,0,0,2.18,0c.09-.1.67-2.55.77-2.92a19,19,0,0,1,.9-2.79,3.15,3.15,0,0,1,2.4-1.3c.76-.12,1.06.12,1.24-.62.41-1.65.64-1.79-.67-1.71a3.94,3.94,0,0,0-2.51.87l.23-.95c-2.21,0-2-.22-2.33,1.17-.25.9-.45,1.9-.74,2.78C279.18,362.7,277.8,367.66,277.79,368Z"></path><g id="layer1"><g id="g7849"><path id="path6153" class="cls-41" d="M1068.54,180.63h10.53a1.65,1.65,0,0,1,1.73,1.44c0,.1,0,.25,0,.35V205a1.68,1.68,0,0,1-1.69,1.82h-21.21a1.66,1.66,0,0,1-1.66-1.82V182.56a1.76,1.76,0,0,1,1.79-1.95c3.5,0,7,0,10.5,0Zm8.67,8.56h0a6.22,6.22,0,0,1-2.59,2.73c-.19.11-.27.14-.33-.12-.23-.74-.49-1.48-.74-2.19-.51-1.51-1-3-1.52-4.54a2.39,2.39,0,0,0-1.57-1.47,7.72,7.72,0,0,0-3-.19,2.87,2.87,0,0,0-2.66,2.22c-.86,2.71-1.79,5.42-2.69,8.11-.73,2.17-1.45,4.31-2.13,6.47a3.37,3.37,0,0,0-.15,1.75,2.71,2.71,0,0,0,2.45,2.09,2.35,2.35,0,0,0,2.54-1.8c.23-.74.48-1.49.64-2.24a1.76,1.76,0,0,1,.83-1.2c0-.08.12-.1.21-.16a7.7,7.7,0,0,1,4.25-1.19c.18,0,.18.14.2.27.41,1.51.79,3,1.25,4.49a2.3,2.3,0,0,0,2,1.8,2.68,2.68,0,0,0,3-3.05c-.06-.29-.13-.65-.21-.94-.46-1.3-.9-2.65-1.33-3.94a.5.5,0,0,1,.08-.48,5.57,5.57,0,0,0,1-1.76,12.56,12.56,0,0,0,.4-4.66"></path><path id="path6155" class="cls-41" d="M1130.16,190.07a6.34,6.34,0,0,1,2.39-.54,1.21,1.21,0,0,1,1.3,1.43,8.65,8.65,0,0,1-.38,2c0,.07-.06.15,0,.25a13,13,0,0,1,1.32-1.74,7,7,0,0,1,2.06-1.76,2.69,2.69,0,0,1,1.32-.35c1.08,0,1.62.67,1.64,1.82a9.56,9.56,0,0,1-.27,1.91,2.36,2.36,0,0,0-.07.45c.26-.35.45-.65.67-1a10,10,0,0,1,2.62-2.65,3,3,0,0,1,1.92-.54,1.46,1.46,0,0,1,1.38,1.62,10.42,10.42,0,0,1-.24,2.15c-.36,1.76-.73,3.52-1,5.27a5,5,0,0,0,.08,1.81,1.61,1.61,0,0,0,.45.85,3.48,3.48,0,0,1-2.67.7,1.55,1.55,0,0,1-1.18-1.56,11.35,11.35,0,0,1,.26-2.54c.35-1.7.68-3.35,1-5a1.16,1.16,0,0,0,0-.31c0-.11-.11-.15-.23-.08a.93.93,0,0,0-.43.36,24.1,24.1,0,0,0-2.69,4.26c-.39.76-.74,1.56-1,2.34a2.51,2.51,0,0,0-.14,2.12c.08.11,0,.11-.08.16a3.89,3.89,0,0,1-2.24.28,1.27,1.27,0,0,1-.91-1.61c.17-1,.46-2.06.66-3.09a40.12,40.12,0,0,0,.82-4.21c0-.21.21-.48,0-.61s-.37.15-.51.3a16.24,16.24,0,0,0-2.22,3.37c-.56,1-1,2.09-1.51,3.19a2.55,2.55,0,0,0-.17,2.22c.07.11,0,.11-.06.16a3.78,3.78,0,0,1-2.23.27c-.9-.21-1.26-.94-1-2,.4-1.66.83-3.27,1.18-4.91a27.17,27.17,0,0,0,.54-3.74c0-.36.09-.82-.33-1.12"></path><path id="path6157" class="cls-42" d="M1101,199.55a2.16,2.16,0,0,1-2.23,2.28,1.83,1.83,0,0,1-1.79-1.56c-.11-.43-.27-.86-.39-1.3,0-.16-.09-.26-.29-.26-1.45,0-2.89,0-4.34,0-.21,0-.25.1-.31.25-.13.44-.29.85-.38,1.27a1.92,1.92,0,0,1-2.51,1.53,2.11,2.11,0,0,1-1.43-2.71c.37-1.32.85-2.6,1.27-3.9.83-2.53,1.7-5,2.5-7.59a2.48,2.48,0,0,1,2.29-2,5.82,5.82,0,0,1,2.07.15,2,2,0,0,1,1.52,1.43l1.68,5.08c.71,2.14,1.39,4.2,2.1,6.33a4.77,4.77,0,0,1,.24,1Zm-8.36-4.4h2.69c.23,0,.26,0,.18-.29-.32-1.13-.66-2.3-1-3.44-.1-.43-.24-.83-.36-1.28h-.05q-.73,2.49-1.46,5"></path><path id="path6159" class="cls-43" d="M1127.09,195.76c0,1.41.06,2.81,0,4.2-.17,1.63-1.62,2.53-2.91,1.8a1.7,1.7,0,0,1-.5-.39c-.09-.16-.17-.14-.3-.05a5.44,5.44,0,0,1-8-4.3,7,7,0,0,1,1.4-5.51,5.39,5.39,0,0,1,4-2,4.57,4.57,0,0,1,2.62.65c.11.08.2.12.3,0a1.78,1.78,0,0,1,2.12-.45,2,2,0,0,1,1.27,1.84c.08,1.23,0,2.46,0,3.68v.54Zm-5.83,3.2h0a1.44,1.44,0,0,0,1.57-1.26,6.18,6.18,0,0,0,.21-2.39,4.12,4.12,0,0,0-.39-1.78,1.27,1.27,0,0,0-1-.82,1.8,1.8,0,0,0-2.15,1.33,5.91,5.91,0,0,0,0,3.58,1.72,1.72,0,0,0,1.77,1.34"></path><path id="path6161" class="cls-41" d="M1159.64,197.85a25.06,25.06,0,0,1-1.67,2.21,4.67,4.67,0,0,1-2.47,1.77,3,3,0,0,1-1.3,0,2.09,2.09,0,0,1-1.65-1.94,9.12,9.12,0,0,1,.49-4.78,9.88,9.88,0,0,1,2.75-4.21,4.46,4.46,0,0,1,5.15-.8c.09,0,.22.19.24,0a9,9,0,0,0,.22-2.32c-.05-.53-.05-.53.45-.78a3.57,3.57,0,0,1,1.77-.37,1.29,1.29,0,0,1,1.27,1.67c-.21,1.14-.49,2.28-.72,3.38-.44,2-.86,4-1.12,6a6,6,0,0,0,.34,3.3c.07.11,0,.15-.07.21a2.54,2.54,0,0,1-2.74.52,1.84,1.84,0,0,1-1-1.68,16.42,16.42,0,0,1,.1-2.2Zm-3.69-.12h0a5,5,0,0,0,0,.86c.09.57.37.67.77.32a4.64,4.64,0,0,0,1-1.18,46.13,46.13,0,0,0,2.41-4c.52-.87.48-.95-.33-1.51a.56.56,0,0,0,0-.08,1.49,1.49,0,0,0-2.32.42,1.85,1.85,0,0,0-.27.47,13.23,13.23,0,0,0-1.23,4.7"></path><path id="path6163" class="cls-44" d="M1112.8,196.53v3.07c0,.21,0,.41,0,.61a1.78,1.78,0,0,1-2,1.62,1.9,1.9,0,0,1-1.84-2.05c0-1,0-2,0-3,0-1.2,0-2.43,0-3.63,0-.23,0-.34-.29-.38a1.56,1.56,0,0,1-1.24-.74,1.4,1.4,0,0,1,1-2.08c.52-.1.56-.1.52-.68a6.14,6.14,0,0,1,.1-1.37,2.85,2.85,0,0,1,1.79-2.19,5.16,5.16,0,0,1,3.57,0,1.53,1.53,0,0,1,1.18,1.64,1,1,0,0,1-1.11,1.1,6.61,6.61,0,0,0-.89,0c-.47,0-.68.29-.72.81s0,.67.6.66a4.42,4.42,0,0,1,.81.06,1.33,1.33,0,0,1,1.09,1.33,1.31,1.31,0,0,1-.91,1.4,3.93,3.93,0,0,1-1.32.13c-.22,0-.27,0-.27.28v3.41"></path><path id="path6165" class="cls-42" d="M1102.33,193.66c0-2,0-4,0-6a2.13,2.13,0,0,1,1.48-2.15,2,2,0,0,1,2.49,1.79c0,.24,0,.48,0,.74v11.21a3.37,3.37,0,0,1-.12.94,1.93,1.93,0,0,1-3.84-.12,4.3,4.3,0,0,1-.07-.94v-5.46Z"></path><path id="path6167" class="cls-41" d="M1169.23,201.08a3.48,3.48,0,0,1-2.79.76,1.5,1.5,0,0,1-1.25-1.59,8.18,8.18,0,0,1,.33-2.65c.33-1.68.75-3.32,1-5a4.91,4.91,0,0,0,0-1.91.58.58,0,0,0,0-.26c-.16-.42-.16-.42.28-.54a6.12,6.12,0,0,1,2.32-.35,1.25,1.25,0,0,1,1.08,1.74c-.32,1.24-.66,2.47-.92,3.73a32.66,32.66,0,0,0-.69,3.83,8.39,8.39,0,0,0,0,1,2,2,0,0,0,.59,1.24"></path><path id="path6169" class="cls-41" d="M1148.44,191.55a2.73,2.73,0,0,0-.26-1.38c0-.1,0-.14.09-.19a5.49,5.49,0,0,1,2.83-.37c.75.14,1.08.71.88,1.55-.23,1.09-.51,2.12-.78,3.2a41.63,41.63,0,0,0-.81,4.32,4.48,4.48,0,0,0,.15,1.74c0,.11.08.21.14.33s.26.26.23.32a.59.59,0,0,1-.39.33,3.43,3.43,0,0,1-2,.5,1.65,1.65,0,0,1-1.59-1.87,13.5,13.5,0,0,1,.37-2.57c.33-1.66.78-3.3,1.06-5,0-.35.07-.74.1-.92"></path><path id="path6171" class="cls-45" d="M1151.41,185.5h.2c1,.06,1.39.7,1.13,1.72a1.21,1.21,0,0,1-.86,1,4.33,4.33,0,0,1-1.71.24c-.8-.15-1-.45-.84-1.31a1.33,1.33,0,0,0,0-1.07c-.09-.13.11-.11.16-.13a4.64,4.64,0,0,1,1.92-.41"></path><path id="path6173" class="cls-45" d="M1167.53,185.94a4.75,4.75,0,0,1,2.64-.39A1.06,1.06,0,0,1,1171,187a1.3,1.3,0,0,1-1,1.2,4.23,4.23,0,0,1-1.69.21c-.68-.17-.91-.48-.71-1.19a2.43,2.43,0,0,1,.08-.47,1,1,0,0,0-.14-.81"></path><path id="path6175" class="cls-18" d="M1077.21,189.19a12.56,12.56,0,0,1-.41,4.66,5.39,5.39,0,0,1-1,1.76.53.53,0,0,0-.07.48c.43,1.29.87,2.64,1.32,3.94.08.29.15.65.22.94a2.68,2.68,0,0,1-3,3.05,2.28,2.28,0,0,1-2-1.8c-.46-1.5-.84-3-1.25-4.49,0-.13,0-.27-.21-.27a7.67,7.67,0,0,0-4.24,1.19c-.1.06-.18.08-.22.16a1.72,1.72,0,0,0-.82,1.2c-.17.75-.42,1.5-.65,2.24a2.34,2.34,0,0,1-2.54,1.8,2.7,2.7,0,0,1-2.44-2.09,3.27,3.27,0,0,1,.15-1.75c.68-2.16,1.39-4.3,2.12-6.47.9-2.69,1.84-5.4,2.69-8.11a2.88,2.88,0,0,1,2.66-2.22,7.72,7.72,0,0,1,3,.19,2.39,2.39,0,0,1,1.57,1.47c.55,1.5,1,3,1.53,4.54.25.71.51,1.45.73,2.19.07.26.15.23.34.12a6.2,6.2,0,0,0,2.58-2.73Zm-10.49,6h0a8.27,8.27,0,0,1,2.92-1.74c.23,0,.1-.2.07-.3-.36-1.25-.7-2.48-1.08-3.72a.37.37,0,0,0-.14-.32c-.58,2-1.15,4-1.77,6.08"></path><path id="path6177" class="cls-45" d="M1066.72,195.22c.62-2.09,1.19-4.07,1.77-6.08a.37.37,0,0,1,.14.32c.38,1.24.72,2.47,1.08,3.72,0,.1.16.25-.06.3a8.31,8.31,0,0,0-2.93,1.74"></path></g></g><path class="cls-46" d="M848.87,365.21h-2.56v-6.6h2.48a1.74,1.74,0,0,1,1.94,1.76,1.51,1.51,0,0,1-1,1.45,1.58,1.58,0,0,1,1.07,1.56,1.74,1.74,0,0,1-2,1.83m-.14-6H847v2.29h1.72c.73,0,1.3-.36,1.3-1.15s-.57-1.14-1.3-1.14m.08,2.92H847v2.42h1.8a1.21,1.21,0,1,0,0-2.42"></path><path class="cls-46" d="M854.88,365.21v-.51a1.66,1.66,0,0,1-1.28.56,1.61,1.61,0,0,1-1.18-.42,1.68,1.68,0,0,1-.46-1.28v-2.91h.66v2.81a1.06,1.06,0,0,0,1.11,1.21,1.08,1.08,0,0,0,1.14-1.21v-2.81h.67v4.56Z"></path><path class="cls-46" d="M858,366.31a1.43,1.43,0,0,1-.33.54,1.25,1.25,0,0,1-.89.31h-.29v-.59h.21c.46,0,.6-.15.75-.57l.32-.88-1.64-4.47h.73l1.25,3.66,1.24-3.66H860Z"></path><polygon class="cls-46" points="862.66 365.21 862.66 358.61 866.76 358.61 866.76 359.24 863.37 359.24 863.37 361.57 866.26 361.57 866.26 362.2 863.37 362.2 863.37 364.58 866.76 364.58 866.76 365.21 862.66 365.21"></polygon><polygon class="cls-46" points="869.26 365.21 868.66 365.21 867 360.65 867.72 360.65 868.96 364.31 870.21 360.65 870.94 360.65 869.26 365.21"></polygon><path class="cls-46" d="M871.82,363.11c0,1,.48,1.57,1.35,1.57a1.49,1.49,0,0,0,1.19-.52l.46.4a2.11,2.11,0,0,1-1.67.7c-1.2,0-2-.72-2-2.33s.71-2.34,1.87-2.34,1.87.86,1.87,2.21v.31Zm2.28-1.27a1.18,1.18,0,0,0-2.14,0,2.21,2.21,0,0,0-.14.77h2.42a2,2,0,0,0-.14-.77"></path><path class="cls-46" d="M878.5,361.52a1,1,0,0,0-.79-.33,1.12,1.12,0,0,0-1.1,1.22v2.8H876v-4.56h.66v.56a1.56,1.56,0,0,1,1.28-.62A1.4,1.4,0,0,1,879,361Z"></path><path class="cls-46" d="M880.61,366.31a1.31,1.31,0,0,1-.33.54,1.25,1.25,0,0,1-.89.31h-.28v-.59h.2c.46,0,.6-.15.75-.57l.33-.88-1.64-4.47h.72l1.25,3.66,1.24-3.66h.72Z"></path><polygon class="cls-46" points="887.58 365.21 886.96 365.21 885.77 361.67 884.58 365.21 883.96 365.21 882.52 360.65 883.24 360.65 884.29 364.31 885.48 360.65 886.06 360.65 887.26 364.31 888.3 360.65 889.02 360.65 887.58 365.21"></polygon><path class="cls-46" d="M892.5,365.21v-2.82a1,1,0,0,0-1.11-1.2,1.07,1.07,0,0,0-1.14,1.2v2.82h-.67v-6.6h.67v2.54a1.63,1.63,0,0,1,1.28-.56,1.54,1.54,0,0,1,1.64,1.69v2.93Z"></path><path class="cls-46" d="M894.84,363.11c0,1,.47,1.57,1.34,1.57a1.52,1.52,0,0,0,1.2-.52l.45.4a2.09,2.09,0,0,1-1.67.7c-1.2,0-2-.72-2-2.33s.71-2.34,1.87-2.34,1.87.86,1.87,2.21v.31Zm2.27-1.27a1.18,1.18,0,0,0-2.14,0,1.84,1.84,0,0,0-.13.77h2.4a1.84,1.84,0,0,0-.13-.77"></path><path class="cls-46" d="M901.51,361.52a1,1,0,0,0-.79-.33,1.11,1.11,0,0,0-1.09,1.22v2.8H899v-4.56h.67v.56a1.52,1.52,0,0,1,1.28-.62A1.43,1.43,0,0,1,902,361Z"></path><path class="cls-46" d="M902.59,363.11c0,1,.47,1.57,1.34,1.57a1.51,1.51,0,0,0,1.2-.52l.45.4a2.09,2.09,0,0,1-1.66.7c-1.21,0-2-.72-2-2.33s.72-2.34,1.87-2.34,1.88.86,1.88,2.21v.31Zm2.27-1.27a1.17,1.17,0,0,0-2.13,0,2,2,0,0,0-.14.77H905a2,2,0,0,0-.14-.77"></path><polygon class="cls-46" points="906.69 366.54 906.69 364.39 907.51 364.39 907.51 365.81 906.69 366.54"></polygon><path class="cls-46" d="M913.3,362.49h-1.75v2.72h-.71v-6.6h2.46a1.94,1.94,0,1,1,0,3.88m-.07-3.25h-1.68v2.62h1.68a1.31,1.31,0,1,0,0-2.62"></path><path class="cls-46" d="M918.68,365.21v-.44a1.59,1.59,0,0,1-1.31.49,1.64,1.64,0,0,1-1.29-.41,1.29,1.29,0,0,1-.35-.93c0-.8.56-1.31,1.58-1.31h1.37v-.44c0-.67-.33-1-1.17-1a1.2,1.2,0,0,0-1.15.52l-.45-.42a1.76,1.76,0,0,1,1.61-.68c1.23,0,1.83.54,1.83,1.52v3.1Zm0-2.1H917.4c-.68,0-1,.27-1,.8s.33.78,1,.78a1.33,1.33,0,0,0,1-.31,1,1,0,0,0,.23-.78Z"></path><path class="cls-46" d="M921.73,366.31a1.31,1.31,0,0,1-.33.54,1.24,1.24,0,0,1-.88.31h-.29v-.59h.2c.46,0,.6-.15.75-.57l.33-.88-1.64-4.47h.72l1.25,3.66,1.24-3.66h.73Z"></path><path class="cls-46" d="M930.27,365.21l-.53-1.49h-2.88l-.53,1.49h-.75l2.43-6.6h.59l2.42,6.6Zm-2-5.59-1.24,3.49h2.47Z"></path><path class="cls-46" d="M934.51,365.21V362.4a1.05,1.05,0,0,0-1.12-1.21,1.07,1.07,0,0,0-1.13,1.21v2.81h-.67v-4.56h.67v.5a1.66,1.66,0,0,1,1.28-.56,1.6,1.6,0,0,1,1.17.43,1.71,1.71,0,0,1,.47,1.27v2.92Z"></path><path class="cls-46" d="M937.56,366.31a1.42,1.42,0,0,1-.32.54,1.28,1.28,0,0,1-.89.31h-.29v-.59h.2c.47,0,.61-.15.75-.57l.33-.88-1.64-4.47h.72l1.25,3.66,1.24-3.66h.72Z"></path><polygon class="cls-46" points="944.53 365.21 943.92 365.21 942.72 361.67 941.53 365.21 940.91 365.21 939.47 360.65 940.19 360.65 941.24 364.31 942.43 360.65 943.01 360.65 944.21 364.31 945.25 360.65 945.97 360.65 944.53 365.21"></polygon><path class="cls-46" d="M949.45,365.21v-2.82c0-.8-.42-1.2-1.11-1.2a1.07,1.07,0,0,0-1.14,1.2v2.82h-.67v-6.6h.67v2.54a1.64,1.64,0,0,1,1.28-.56,1.54,1.54,0,0,1,1.64,1.69v2.93Z"></path><path class="cls-46" d="M951.79,363.11c0,1,.47,1.57,1.34,1.57a1.51,1.51,0,0,0,1.2-.52l.45.4a2.09,2.09,0,0,1-1.67.7c-1.2,0-2-.72-2-2.33s.71-2.34,1.87-2.34,1.87.86,1.87,2.21v.31Zm2.27-1.27a1.14,1.14,0,0,0-1.07-.68,1.13,1.13,0,0,0-1.06.68,2,2,0,0,0-.14.77h2.41a2,2,0,0,0-.14-.77"></path><path class="cls-46" d="M958.46,361.52a1,1,0,0,0-.79-.33,1.11,1.11,0,0,0-1.09,1.22v2.8h-.67v-4.56h.67v.56a1.54,1.54,0,0,1,1.28-.62A1.42,1.42,0,0,1,959,361Z"></path><path class="cls-46" d="M959.54,363.11c0,1,.47,1.57,1.34,1.57a1.49,1.49,0,0,0,1.2-.52l.45.4a2.09,2.09,0,0,1-1.66.7c-1.21,0-2-.72-2-2.33s.71-2.34,1.86-2.34,1.88.86,1.88,2.21v.31Zm2.27-1.27a1.13,1.13,0,0,0-1.07-.68,1.15,1.15,0,0,0-1.06.68,2,2,0,0,0-.14.77H962a2,2,0,0,0-.14-.77"></path><path class="cls-47" d="M917.23,343v7.9H914V332.13H924.9a8.55,8.55,0,0,1,5.26,1.48,4.51,4.51,0,0,1,2,3.79,4.93,4.93,0,0,1-1.64,3.76,8,8,0,0,1-5.58,1.8Zm0-8.66v6.49h6.55q5,0,5-3.36,0-3.14-4.82-3.13Z"></path><path class="cls-47" d="M935.56,341.36h-2.74c.13-3,2.56-4.53,7.31-4.53a11.39,11.39,0,0,1,3.82.6q2.77,1,2.77,3.22v7.88q0,.81,1,.81a5.32,5.32,0,0,0,1-.15v1.67a12.3,12.3,0,0,1-1.62.26,3.83,3.83,0,0,1-2.53-.65,2,2,0,0,1-.63-1.44,9.66,9.66,0,0,1-6.41,2.21,6.76,6.76,0,0,1-4-1.09,3.33,3.33,0,0,1-1.55-2.84c0-2.5,1.79-3.92,5.4-4.28l4.9-.47A1.49,1.49,0,0,0,943.8,341q0-2.22-4.18-2.22a4.76,4.76,0,0,0-3.23.91,3.17,3.17,0,0,0-.83,1.72m8.16,4.77v-2.24c-.47.3-2.1.59-4.9.87-2.54.25-3.8,1-3.8,2.21,0,1.58,1.07,2.37,3.22,2.37a7.61,7.61,0,0,0,3.81-.94,2.68,2.68,0,0,0,1.67-2.27"></path><path class="cls-47" d="M956.37,348.33l4.74-11.11h3.28q-2.05,4.45-6.39,13.37a39.36,39.36,0,0,1-2.19,4,4.1,4.1,0,0,1-1.87,1.59,9.83,9.83,0,0,1-2.87.28,8.05,8.05,0,0,1-1.25-.2v-2.09a6.53,6.53,0,0,0,1.8.24,2.11,2.11,0,0,0,1.61-.53,14.69,14.69,0,0,0,1.55-2.63l-6.61-14h3.39l4.72,11.11Z"></path><path class="cls-46" d="M899.83,346V334.57a2.38,2.38,0,0,0-2.43-2.44H879.32a2.41,2.41,0,0,0-1.84.83l-3,3.48a2.31,2.31,0,0,0-.59,1.6v8.88l.76,1.55h-.76l-.76-1.54h-.77a1.28,1.28,0,0,1-1.31-1.31V338a2.64,2.64,0,0,0-.6-1.6L868.12,333a2.08,2.08,0,0,0-1.85-.83H848.68l-.3,0a2.18,2.18,0,0,0-2,1.67,2.27,2.27,0,0,0-.12.63,1.09,1.09,0,0,0,0,.12v13.91a2.44,2.44,0,0,0,4.87,0V337h5.08v11.5a2.44,2.44,0,0,0,4.88,0V337h3.42l1.66,2.47v9a2.65,2.65,0,0,0,.67,1.68,2.35,2.35,0,0,0,1.79.73h18.06a2.39,2.39,0,0,0,1.84-.83l3-3.47a2.5,2.5,0,0,0,.59-1.61v-8.89h0l-.72-1.44h.77l.71,1.44h.76a1.29,1.29,0,0,1,1.31,1.32v11.07a2.39,2.39,0,0,0,2.44,2.43h10.09a2.56,2.56,0,0,0,1.92-.85l3.57-4Zm-12.47-1.65-2.2,2.55h-6.43v-8.4l2.15-2.43h6.48Z"></path><polygon class="cls-11" points="556.55 336.45 553 328.73 441.1 328.73 441.1 366.02 553 366.02 556.55 356.61 556.55 336.45"></polygon><path class="cls-48" d="M504.11,349.28a3,3,0,0,0-2.16-.8,3.2,3.2,0,0,0-2.23.8,2.51,2.51,0,0,0-.91,1.92,2.65,2.65,0,0,0,.85,2,3.16,3.16,0,0,0,2.25.8,3.23,3.23,0,0,0,2.24-.75,2.52,2.52,0,0,0,.83-2,2.63,2.63,0,0,0-.87-2"></path><path class="cls-48" d="M501.87,345a2,2,0,0,0,1.53-.62,2.18,2.18,0,0,0,.6-1.59,2,2,0,0,0-.6-1.51,2.21,2.21,0,0,0-1.59-.58,2,2,0,0,0-1.49.6,2.07,2.07,0,0,0-.59,1.52,2.11,2.11,0,0,0,.62,1.55,2,2,0,0,0,1.52.63"></path><path class="cls-48" d="M458.93,345.64a3.74,3.74,0,0,0-2.81,1.16,4.16,4.16,0,0,0-1.11,3,4.3,4.3,0,0,0,1.11,3.08,3.72,3.72,0,0,0,2.81,1.18,3.64,3.64,0,0,0,2.76-1.2,4.27,4.27,0,0,0,1.12-3.05,4.22,4.22,0,0,0-1.1-3,3.64,3.64,0,0,0-2.78-1.18"></path><path class="cls-48" d="M474,345.64a3.59,3.59,0,0,0-2.76,1.18,4.22,4.22,0,0,0-1.1,3,4.27,4.27,0,0,0,1.12,3.05,3.62,3.62,0,0,0,2.75,1.2,3.7,3.7,0,0,0,2.8-1.18,4.3,4.3,0,0,0,1.11-3.08,4.16,4.16,0,0,0-1.11-3,3.74,3.74,0,0,0-2.81-1.16"></path><path class="cls-48" d="M517,349.28a3,3,0,0,0-2.17-.8,3.23,3.23,0,0,0-2.23.8,2.5,2.5,0,0,0-.9,1.92,2.62,2.62,0,0,0,.85,2,3.12,3.12,0,0,0,2.24.8,3.23,3.23,0,0,0,2.24-.75,2.52,2.52,0,0,0,.83-2,2.62,2.62,0,0,0-.86-2"></path><path class="cls-48" d="M514.76,345a2,2,0,0,0,1.53-.62,2.18,2.18,0,0,0,.6-1.59,2,2,0,0,0-.6-1.51,2.21,2.21,0,0,0-1.59-.58,2,2,0,0,0-1.49.6,2.06,2.06,0,0,0-.58,1.52,2.1,2.1,0,0,0,.61,1.55,2.06,2.06,0,0,0,1.52.63"></path><path class="cls-48" d="M530.05,358.67c-.59-15.14,25.82-16.32,26.5-16.34v-9a6,6,0,0,0-6-6H441.42a6,6,0,0,0-6,6v30.26a6,6,0,0,0,6,6H550.58a6,6,0,0,0,6-6v-11.8c-23.28-.17-26.5,6.89-26.5,6.89M450.5,357h-3.57V342.7h3.57Zm-.17-16.18a2.14,2.14,0,0,1-1.59.67,2.19,2.19,0,0,1-1.63-.69,2.27,2.27,0,0,1-.67-1.67,2.29,2.29,0,0,1,2.28-2.28,2.21,2.21,0,0,1,1.61.68,2.27,2.27,0,0,1,.67,1.65,2.23,2.23,0,0,1-.67,1.64m14,14.4a6.37,6.37,0,0,1-4.79,2.14,5.77,5.77,0,0,1-2.29-.44,7,7,0,0,1-2.12-1.43v6.73h-3.55V342.7h3.55v1.58a6.87,6.87,0,0,1,2.1-1.46,6.11,6.11,0,0,1,2.42-.48,6.2,6.2,0,0,1,4.74,2.11,7.65,7.65,0,0,1,2,5.41,7.47,7.47,0,0,1-2,5.34m56.31-.59a5.31,5.31,0,0,1-2.23,2.13,7.84,7.84,0,0,1-3.58.72,8.32,8.32,0,0,1-3.71-.69,5.29,5.29,0,0,1-2.21-2.09,6.16,6.16,0,0,1-.59-1.37,6,6,0,0,1-.57,1.3,5.34,5.34,0,0,1-2.24,2.13,7.81,7.81,0,0,1-3.58.72,8.38,8.38,0,0,1-3.71-.69,5.26,5.26,0,0,1-2.2-2.09,6.07,6.07,0,0,1-.83-3.15,5.88,5.88,0,0,1,.66-2.78,6.72,6.72,0,0,1,2-2.23,6.45,6.45,0,0,1-1.3-1.87,4.93,4.93,0,0,1-.42-1.59l-8.77,19.14h-3.7l2.94-6.29L481.3,343v14h-3.58v-1.5a7.07,7.07,0,0,1-2.1,1.43,5.72,5.72,0,0,1-2.28.44,6.36,6.36,0,0,1-4.79-2.14,7.52,7.52,0,0,1-2-5.34,7.65,7.65,0,0,1,2-5.41,6.2,6.2,0,0,1,4.74-2.11,6.1,6.1,0,0,1,2.41.48,6.68,6.68,0,0,1,2.08,1.46V342.7h7.13l3.71,9,4.09-9h3.48v-.14a5.29,5.29,0,0,1,.73-2.75,5,5,0,0,1,2-1.92,6.45,6.45,0,0,1,3-.69,6.21,6.21,0,0,1,3,.69,5.09,5.09,0,0,1,2,2,5.39,5.39,0,0,1,.74,2.74,4.71,4.71,0,0,1-.39,1.92,7.7,7.7,0,0,1-1.41,2,5.81,5.81,0,0,1,2,2.15,6.67,6.67,0,0,1,.46,1.11,5.43,5.43,0,0,1,.42-1,6.68,6.68,0,0,1,2-2.23,6.45,6.45,0,0,1-1.3-1.87,5.16,5.16,0,0,1-.44-2.09,5.29,5.29,0,0,1,.73-2.75,5,5,0,0,1,2-1.92,6.39,6.39,0,0,1,3-.69,6.17,6.17,0,0,1,3,.69,5.09,5.09,0,0,1,2,2,5.39,5.39,0,0,1,.74,2.74,4.87,4.87,0,0,1-.38,1.92,7.77,7.77,0,0,1-1.42,2,5.73,5.73,0,0,1,2,2.15,6.05,6.05,0,0,1-.12,5.94m33.53-14.44c-19.9,1.82-24.65-10.3-24.65-10.3,25.92-.36,24.65,10.3,24.65,10.3"></path><path class="cls-49" d="M709.48,349.28h7.26c.62,0,.62.2.62.53v2.67c0,.68-.11.91-1.09.91h-6.69c-.26,0-.61.1-.61-.42V350.9c0-.35-.08-.48-.47-.48H707c-.23,0-.45,0-.45.48v3.65c0,1.23.51,2,2.09,2h8.75a2.2,2.2,0,0,0,2.43-2.32v-5.32c0-1.17-.87-2.07-2.45-2.07H709.7c-.39,0-.73-.06-.73-.61v-2.46c0-.29.16-.51.64-.51h7.22c.68,0,.53.16.53.64v1.42c0,.39.31.39.66.39h1.35c.39,0,.44-.19.44-.48V343c0-2.16-.76-2.94-2.56-2.94h-7.64c-2,0-3.07,0-3.09,2.94v4.25c0,1.36.84,2,3,2m15.36-.66V344c0-.61.34-.77.73-.77h7c.49,0,.63.13.63.51v9.07c0,.55-.3.55-.63.55h-7.06c-.49,0-.7-.1-.7-.58Zm0,7.93H733c1.81,0,2.71-.6,2.71-2.74V343c0-2-.83-2.94-2.61-2.94h-8c-1.67,0-2.66.68-2.66,2.94v11.13c0,1.39.64,2.38,2.48,2.38m-77.55-13.29h2.17v10.13h-2.11a.37.37,0,0,0-.37.36h0v2.43a.36.36,0,0,0,.37.36h12.81a.36.36,0,0,0,.37-.36v-5.56a.36.36,0,0,0-.36-.37h-1.74a.37.37,0,0,0-.37.37v2.76H652V343.26h2a.37.37,0,0,0,.37-.36h0v-2.43a.37.37,0,0,0-.37-.36h-6.68a.36.36,0,0,0-.37.36v2.43a.36.36,0,0,0,.37.37m24,2.6,1.87,3.37h-3.78Zm-8.89,10.69h6.69a.36.36,0,0,0,.36-.36v-2.43a.36.36,0,0,0-.36-.37H667l1-1.7h6.55l.94,1.71h-2a.36.36,0,0,0-.37.37v2.43a.36.36,0,0,0,.37.36h6.69a.36.36,0,0,0,.36-.36h0v-2.43a.37.37,0,0,0-.36-.37h-1.87l-5.59-10.13h2.1a.37.37,0,0,0,.37-.37v-2.43a.37.37,0,0,0-.37-.36h-6.69a.37.37,0,0,0-.37.36h0v2.43a.37.37,0,0,0,.37.37H670l-5.75,10.12h-1.79a.37.37,0,0,0-.37.37v2.43a.37.37,0,0,0,.37.36m15.42-13.29h2l5,10.13H682.8a.36.36,0,0,0-.36.37h0v2.43a.36.36,0,0,0,.36.36h6.69a.37.37,0,0,0,.37-.36v-2.43a.37.37,0,0,0-.37-.37h-1.86l3.63-7.4,3.66,7.4h-2a.36.36,0,0,0-.36.37v2.43a.36.36,0,0,0,.36.36h6.69a.37.37,0,0,0,.37-.36v-2.43a.37.37,0,0,0-.37-.37h-1.88l5-10.13h2a.36.36,0,0,0,.36-.37v-2.43a.36.36,0,0,0-.36-.36H698a.36.36,0,0,0-.37.36v2.43a.36.36,0,0,0,.37.37h2l-3.64,7.43-3.68-7.43h1.94a.36.36,0,0,0,.36-.37v-2.43a.36.36,0,0,0-.36-.36H687.9a.37.37,0,0,0-.37.36h0v2.43a.37.37,0,0,0,.37.37h1.94l-3.61,7.37-3.65-7.37h1.94a.36.36,0,0,0,.37-.37v-2.43a.36.36,0,0,0-.37-.36h-6.69a.36.36,0,0,0-.36.36v2.43a.36.36,0,0,0,.36.37m59.82,13.29h6.68a.36.36,0,0,0,.37-.36v-2.43a.36.36,0,0,0-.37-.37h-2.19v-7.25h0l7.76,7.25h-1.74a.36.36,0,0,0-.36.37v2.43a.36.36,0,0,0,.36.36h6.69a.36.36,0,0,0,.37-.36v-2.43a.37.37,0,0,0-.37-.37h-2.13V343.26h2.13a.36.36,0,0,0,.37-.37v-2.43a.37.37,0,0,0-.37-.36h-6.69a.36.36,0,0,0-.36.36v2.43a.36.36,0,0,0,.36.37h2.11v7.12h0l-7.61-7.12h1.68a.36.36,0,0,0,.37-.37v-2.43a.36.36,0,0,0-.37-.36h-6.68a.36.36,0,0,0-.37.36h0v2.43a.36.36,0,0,0,.37.37h2v10.13h-2a.36.36,0,0,0-.37.36h0v2.43a.36.36,0,0,0,.37.36"></path></svg>